<?xml version="1.0" standalone="no"?>
<!DOCTYPE svg PUBLIC "-//W3C//DTD SVG 20010904//EN"
 "http://www.w3.org/TR/2001/REC-SVG-20010904/DTD/svg10.dtd">
<svg version="1.0" xmlns="http://www.w3.org/2000/svg"
 width="560.000000pt" height="1000.000000pt" viewBox="0 0 560.000000 1000.000000"
 preserveAspectRatio="xMidYMid meet">

<g transform="translate(0.000000,1000.000000) scale(0.100000,-0.100000)"
fill="#000000" stroke="none">
<path d="M2950 9590 c-122 -16 -133 -31 -154 -201 -24 -191 -22 -184 -59 -200
-25 -11 -36 -25 -49 -64 l-16 -50 -179 -17 c-98 -9 -234 -22 -303 -28 -142
-13 -181 -27 -211 -77 -20 -33 -21 -43 -15 -152 5 -95 3 -123 -9 -148 -44 -87
-41 -219 6 -311 l29 -57 21 -370 c28 -503 14 -478 285 -483 l174 -3 0 -88 0
-88 -97 -11 c-596 -68 -812 -94 -831 -98 -13 -3 -35 -16 -48 -29 -21 -21 -24
-33 -24 -95 0 -67 -2 -72 -44 -127 -24 -32 -52 -80 -62 -108 -24 -65 -24 -181
0 -252 l18 -53 -34 -142 c-31 -136 -34 -144 -80 -196 -27 -31 -55 -76 -65
-106 -22 -64 -22 -170 1 -213 16 -31 15 -37 -33 -205 l-49 -173 -54 -55 c-64
-66 -105 -164 -118 -281 -5 -54 -10 -68 -15 -51 -4 12 -17 24 -29 27 -11 3
-79 18 -151 34 l-130 30 -200 -106 c-110 -58 -202 -107 -203 -108 -2 -2 1 -27
7 -57 6 -29 13 -74 16 -101 l6 -47 112 -56 111 -56 44 21 43 21 -6 55 -7 54
62 31 c34 17 64 29 68 26 6 -7 42 -230 42 -266 0 -22 -11 -30 -82 -63 l-82
-38 -91 41 -91 41 -47 -26 c-26 -15 -47 -30 -47 -33 1 -4 8 -54 18 -112 l17
-105 106 -52 107 -53 257 137 256 136 -7 51 c-15 102 -19 96 81 128 88 29 92
29 185 18 52 -6 122 -16 155 -23 l60 -12 5 -98 c7 -135 9 -137 215 -152 136
-10 122 11 130 -187 3 -95 11 -187 16 -203 12 -41 37 -54 120 -64 39 -5 72
-11 74 -13 1 -2 -8 -88 -20 -193 -13 -104 -21 -193 -19 -196 2 -4 -14 -29 -36
-55 -74 -89 -89 -218 -39 -317 12 -23 38 -125 60 -232 128 -647 189 -964 191
-994 l3 -33 -205 -54 c-612 -161 -588 -152 -632 -237 -20 -38 -22 -60 -25
-227 -2 -102 0 -190 4 -196 5 -5 175 -57 378 -115 l370 -105 3 -118 c2 -110 4
-117 25 -126 12 -6 234 -71 493 -145 l471 -134 174 58 c197 67 744 255 1137
390 144 49 267 93 271 96 5 3 10 71 10 152 1 138 0 150 -24 199 -39 79 -77
100 -231 127 l-129 22 -3 565 c-2 560 -2 565 19 615 52 119 65 269 32 375 -22
73 -21 143 7 341 l22 166 149 182 c82 101 149 189 149 195 0 7 -5 17 -11 23
-14 14 -8 17 79 38 114 27 162 79 162 174 0 45 3 52 28 65 40 21 107 96 136
154 52 102 68 185 70 347 2 147 3 153 50 315 31 106 59 180 77 207 61 88 108
249 109 368 0 79 -25 196 -57 267 -23 53 -79 115 -127 143 -10 6 -30 55 -52
127 l-35 117 18 58 c25 80 24 319 0 418 -35 138 -112 265 -200 328 -15 11 -20
31 -24 103 -5 107 -16 139 -51 153 -16 6 -219 15 -501 21 -261 6 -476 11 -477
13 -1 1 -5 34 -9 73 l-7 71 53 6 c30 4 99 9 154 12 135 9 167 18 205 62 l32
36 -7 267 -7 267 25 6 c38 10 52 57 52 172 -1 117 -25 190 -68 200 l-24 6 -9
239 c-13 341 14 319 -419 350 -170 12 -311 23 -313 25 -2 1 -13 22 -25 46 -18
37 -29 46 -62 53 -22 5 -41 11 -43 12 -2 1 -14 69 -27 150 -22 135 -27 150
-54 177 -20 21 -44 32 -78 38 -58 9 -217 9 -293 -1z m-42 -147 c-20 -240 -15
-220 -54 -225 -40 -5 -39 -16 -18 150 15 130 31 172 62 172 16 0 17 -8 10 -97z
m177 57 c27 -30 12 -34 -15 -5 -13 14 -19 25 -13 25 5 0 18 -9 28 -20z m70
-80 c10 -11 16 -20 13 -20 -3 0 -13 9 -23 20 -10 11 -16 20 -13 20 3 0 13 -9
23 -20z m265 -238 c22 -5 40 -17 50 -34 8 -15 12 -29 10 -31 -3 -2 -51 1 -106
6 -83 8 -146 6 -345 -12 -134 -12 -259 -25 -276 -28 -28 -4 -33 -2 -33 14 0
54 47 72 255 93 88 9 390 4 445 -8z m-45 -101 c50 -5 235 -20 413 -32 177 -13
322 -27 322 -31 0 -4 -7 -4 -17 -1 -11 4 -14 3 -9 -5 5 -9 1 -9 -18 -2 -16 6
-27 6 -31 0 -4 -6 -14 -10 -23 -9 -14 0 -13 2 3 8 13 5 -12 9 -65 9 -56 0 -78
-2 -65 -8 17 -7 15 -9 -12 -9 -32 -1 -45 13 -20 22 6 2 1 5 -13 5 -181 8 -228
11 -242 16 -53 18 -52 18 -33 -10 19 -29 14 -40 -12 -29 -10 5 -21 8 -24 7 -4
-1 -6 6 -5 16 0 10 -6 16 -16 16 -10 -1 -15 2 -12 7 3 5 1 9 -5 9 -5 0 -13 -5
-17 -11 -4 -7 -9 -7 -13 -1 -9 14 -121 21 -122 8 -2 -18 -5 -29 -13 -59 -15
-49 29 -1349 50 -1474 4 -30 8 -33 37 -32 31 1 31 1 7 10 -19 7 -16 7 14 3 22
-3 103 0 182 7 113 10 139 15 122 23 -11 6 -32 25 -45 43 -23 30 -24 31 -4 26
12 -3 31 -17 44 -32 19 -23 28 -26 65 -23 31 3 42 0 42 -9 0 -11 3 -11 10 1 8
12 12 12 18 2 13 -19 60 -5 68 20 14 45 69 81 62 41 -2 -10 6 -20 22 -25 21
-6 19 -7 -8 -3 -23 3 -34 0 -38 -10 -4 -8 -13 -15 -22 -15 -8 0 -12 -3 -8 -7
7 -7 101 -6 141 2 11 2 35 4 53 4 20 1 32 6 32 15 0 9 -8 13 -22 10 -21 -4
-21 -4 2 7 14 7 38 13 54 15 l30 2 -27 -16 c-15 -9 -27 -20 -27 -25 0 -4 14 0
30 10 l30 17 0 109 c0 69 -4 106 -10 102 -5 -3 -10 -12 -10 -18 0 -7 -9 -13
-19 -13 -11 0 -17 5 -14 10 4 5 -1 7 -10 3 -10 -3 -17 -3 -17 2 0 16 41 61 56
61 20 0 18 -10 -8 -37 -12 -13 -17 -23 -11 -23 5 0 17 8 26 18 12 13 14 33 10
92 -3 41 -6 103 -6 137 l0 61 -21 -31 c-13 -19 -31 -32 -43 -32 -11 -1 -27 -6
-36 -13 -8 -7 -19 -12 -23 -11 -22 4 -35 -2 -28 -13 4 -7 3 -8 -4 -4 -16 10
-15 -6 1 -24 10 -12 9 -12 -6 -1 -24 19 -35 5 -11 -15 18 -14 18 -15 -3 -4
-19 9 -27 5 -56 -20 -19 -16 -43 -30 -53 -31 -18 0 -17 -1 1 -8 15 -6 7 -10
-35 -15 -30 -4 -64 -10 -75 -13 -11 -3 -17 -2 -13 2 4 5 25 12 45 16 37 7 36
8 -12 7 -59 -2 -121 17 -129 38 -3 8 -11 12 -16 9 -6 -4 -9 -1 -8 7 2 8 -6 12
-23 10 -21 -2 -31 4 -47 30 -11 18 -22 47 -24 63 -3 17 -3 24 -1 18 3 -7 9
-13 15 -13 5 0 7 7 4 16 -3 9 -6 23 -6 32 0 15 -2 15 -11 2 -9 -13 -10 -12 -5
2 3 10 -2 40 -10 68 -8 28 -14 56 -13 63 1 6 1 52 0 100 -1 65 -4 88 -13 85
-7 -3 -15 -15 -19 -29 -6 -22 -7 -22 -8 -3 -1 23 23 49 37 41 4 -3 7 11 7 31
-1 20 5 44 12 53 8 9 13 20 11 25 -1 5 8 28 20 51 26 50 28 60 5 42 -14 -12
-16 -12 -11 1 3 8 15 15 27 15 23 0 43 23 34 39 -3 5 -2 6 3 3 6 -3 16 -2 24
4 13 7 12 9 -1 9 -9 0 -20 7 -23 15 -5 14 -4 14 16 0 13 -8 29 -15 38 -15 13
0 13 2 0 11 -12 8 -11 9 6 4 16 -4 23 0 29 17 6 19 8 20 12 6 5 -20 5 -20 27
-12 12 5 14 10 6 19 -14 16 -2 45 19 46 13 0 12 2 -3 8 -11 4 -15 10 -10 14 6
3 16 1 24 -4 13 -8 12 -12 -4 -24 -11 -8 -17 -18 -13 -21 9 -9 37 15 37 32 0
10 6 8 20 -6 23 -23 26 -31 7 -25 -6 3 -18 -5 -26 -17 -10 -18 -10 -20 0 -10
18 17 50 16 43 -2 -4 -9 7 -20 31 -32 20 -9 44 -28 52 -41 9 -13 18 -21 21
-18 3 2 11 -3 17 -12 11 -15 15 -16 31 -3 11 9 15 10 10 3 -5 -9 0 -13 16 -14
19 -1 18 -3 -7 -8 l-30 -7 36 -7 c24 -5 47 -20 68 -44 25 -29 31 -32 31 -17 0
16 2 17 10 4 7 -10 8 59 4 210 -5 181 -10 228 -22 243 -8 9 -20 17 -25 17 -6
0 -2 -9 7 -19 12 -13 16 -30 13 -53 l-4 -33 -1 38 c-1 26 -6 36 -14 31 -7 -4
-8 -3 -4 4 4 7 2 12 -3 12 -6 0 -11 -5 -11 -11 0 -5 -5 -7 -10 -4 -6 4 -4 13
7 23 15 16 15 17 0 20 -9 2 -17 8 -17 13 0 18 28 9 58 -19 28 -26 30 -34 36
-123 3 -51 7 -158 10 -236 l4 -143 -27 0 c-19 0 -34 9 -49 30 -12 16 -35 33
-50 36 -29 8 -71 37 -126 89 -22 21 -50 36 -75 40 -58 10 -147 -4 -184 -29
-33 -22 -100 -122 -94 -141 2 -5 -2 -25 -10 -43 -21 -51 -28 -181 -13 -269 21
-135 70 -232 146 -289 32 -25 42 -27 116 -25 44 1 90 7 102 13 11 6 48 37 80
69 33 33 67 59 77 59 10 0 31 16 46 35 16 21 37 35 50 35 20 0 22 -6 27 -92 3
-51 8 -166 11 -256 l5 -163 -29 -30 c-16 -16 -38 -29 -48 -29 -10 0 -65 -4
-123 -10 -58 -5 -136 -12 -175 -15 -38 -3 -184 -14 -324 -25 -213 -17 -346
-20 -828 -20 -639 0 -632 -1 -652 63 -5 18 -17 174 -26 347 -9 173 -17 323
-19 333 -5 21 -3 21 37 1 17 -10 70 -21 116 -26 78 -7 88 -6 136 16 160 73
200 352 75 524 -18 25 -49 50 -84 67 -54 26 -58 27 -123 15 -91 -16 -127 -27
-156 -50 -23 -18 -25 -18 -29 -2 -3 9 -6 49 -7 88 -2 63 1 75 22 99 26 31 17
30 757 100 96 9 231 22 300 29 158 17 185 18 295 7z m-10 -31 c3 -5 1 -10 -4
-10 -6 0 -11 5 -11 10 0 6 2 10 4 10 3 0 8 -4 11 -10z m285 -50 c0 -5 -4 -10
-9 -10 -6 0 -13 5 -16 10 -3 6 1 10 9 10 9 0 16 -4 16 -10z m303 3 c-7 -2 -19
-2 -25 0 -7 3 -2 5 12 5 14 0 19 -2 13 -5z m160 -21 c-3 -12 -9 -20 -13 -17
-12 7 -33 -23 -24 -36 4 -7 -7 -4 -24 7 -32 18 -34 24 -10 28 8 1 27 12 43 24
32 26 36 25 28 -6z m-754 -69 c1 -48 6 -117 11 -153 5 -36 10 -107 10 -158 0
-51 4 -101 9 -110 13 -26 21 -92 11 -92 -5 0 -11 19 -13 43 -2 23 -4 -1 -3
-55 1 -70 4 -94 12 -87 13 11 44 2 44 -13 0 -5 -4 -7 -9 -4 -5 3 -15 -2 -22
-11 -10 -12 -14 -53 -14 -159 0 -145 12 -171 16 -34 l2 75 8 -75 c4 -41 4 -77
-1 -80 -4 -3 -9 -25 -12 -50 -3 -34 0 -50 14 -64 20 -22 24 -46 7 -46 -8 0
-10 -14 -6 -42 5 -36 5 -39 -4 -18 -6 14 -8 35 -6 47 2 12 0 28 -5 35 -11 16
-6 -159 6 -187 6 -16 6 -17 -4 -5 -9 12 -10 -3 -7 -67 3 -47 1 -83 -4 -83 -5
0 -9 77 -10 173 0 94 -2 192 -4 217 -2 25 -6 146 -9 270 -4 124 -13 349 -21
500 -12 233 -12 320 -1 320 2 0 4 -39 5 -87z m175 72 c-4 -8 -1 -15 5 -15 6 0
11 5 11 10 0 6 5 10 10 10 16 0 11 -17 -7 -24 -19 -8 -38 8 -29 23 10 16 16
13 10 -4z m521 5 c-3 -5 -12 -10 -18 -10 -7 0 -6 4 3 10 19 12 23 12 15 0z
m-440 -11 c4 -6 13 -8 21 -5 10 4 14 0 12 -11 -2 -9 3 -18 11 -21 8 -2 11 -1
9 4 -3 5 -2 18 3 29 l8 20 1 -20 c2 -11 2 -23 1 -27 0 -5 4 -8 9 -8 6 0 10 4
10 8 0 4 12 8 28 7 23 0 27 -4 27 -27 1 -16 -3 -28 -7 -28 -4 0 -8 -5 -8 -11
0 -5 4 -7 10 -4 5 3 15 -5 22 -19 12 -28 24 -33 30 -14 2 6 14 1 29 -14 l26
-25 -26 -1 c-18 0 -42 16 -78 54 -50 50 -75 87 -34 50 17 -16 19 -16 24 6 8
29 5 31 -29 17 -50 -20 -77 -17 -106 9 -16 14 -28 29 -28 34 0 12 28 10 35 -3z
m302 -5 c-3 -3 -12 -4 -19 -1 -8 3 -5 6 6 6 11 1 17 -2 13 -5z m87 -36 c-5 -8
-2 -9 10 -5 9 4 15 3 12 -2 -3 -5 7 -11 22 -14 38 -8 39 -36 1 -32 -19 3 -28
-1 -31 -13 -3 -10 -15 -18 -27 -19 -17 -1 -21 2 -17 13 3 9 6 20 6 25 0 5 7 9
16 9 9 0 14 6 11 13 -2 6 -12 11 -21 11 -19 -2 -22 12 -3 19 21 9 28 7 21 -5z
m-384 -34 c0 -18 8 -18 26 1 21 21 31 19 60 -12 26 -28 25 -36 -5 -38 -12 -1
-17 3 -14 12 3 7 -2 13 -12 13 -9 0 -13 5 -10 10 8 14 -8 13 -22 -1 -14 -14
-38 0 -39 23 -1 10 2 15 7 12 5 -3 9 -12 9 -20z m336 -19 c1 -15 -3 -25 -12
-25 -8 0 -14 -5 -14 -12 0 -6 -3 -8 -7 -4 -5 4 1 14 11 22 11 8 15 14 8 14 -6
0 -9 7 -6 15 9 23 19 18 20 -10z m-106 -11 c0 -8 -19 -13 -24 -6 -3 5 1 9 9 9
8 0 15 -2 15 -3z m317 -71 c-2 -16 -4 -3 -4 27 0 30 2 43 4 28 2 -16 2 -40 0
-55z m-287 52 c0 -8 -7 -15 -16 -15 -14 0 -14 3 -4 15 7 8 14 15 16 15 2 0 4
-7 4 -15z m-124 -3 c-3 -5 8 -22 24 -37 36 -34 38 -49 8 -40 -21 6 -22 5 -5
-8 17 -14 17 -15 -1 -19 -15 -4 -18 0 -16 21 4 33 -29 65 -61 58 -14 -2 -22 0
-19 4 3 5 16 9 30 9 13 0 24 5 24 10 0 6 5 10 11 10 5 0 8 -4 5 -8z m320 -19
c-10 -10 -19 5 -10 18 6 11 8 11 12 0 2 -7 1 -15 -2 -18z m-116 6 c0 -20 -52
-61 -62 -51 -6 6 1 19 19 36 30 28 43 33 43 15z m-66 -14 c-7 -16 -24 -21 -24
-6 0 8 7 13 27 20 1 1 0 -6 -3 -14z m99 8 c-7 -2 -13 -11 -13 -19 0 -9 -5 -12
-10 -9 -13 8 6 35 24 34 7 0 6 -2 -1 -6z m194 -25 c-3 -8 -6 -5 -6 6 -1 11 2
17 5 13 3 -3 4 -12 1 -19z m-457 2 c0 -5 -2 -10 -4 -10 -3 0 -8 5 -11 10 -3 6
-1 10 4 10 6 0 11 -4 11 -10z m-1403 -69 c73 -58 108 -151 101 -272 -6 -96
-42 -177 -96 -214 -57 -39 -68 -30 -24 20 55 62 76 135 70 239 -7 98 -34 163
-96 223 -42 41 -42 42 -12 33 16 -5 42 -18 57 -29z m1850 -38 c-2 -16 -4 -5
-4 22 0 28 2 40 4 28 2 -13 2 -35 0 -50z m-1970 38 c120 -55 169 -252 99 -395
-76 -156 -244 -143 -319 23 -29 66 -30 198 -1 261 35 76 98 126 164 129 8 0
34 -8 57 -18z m1776 -38 c-6 -15 -23 -17 -23 -4 0 5 -8 12 -17 14 -10 2 -4 4
13 3 21 -1 30 -5 27 -13z m-203 -47 c0 -2 -8 -10 -17 -17 -16 -13 -17 -12 -4
4 13 16 21 21 21 13z m280 -26 c0 -5 -5 -10 -11 -10 -5 0 -7 5 -4 10 3 6 8 10
11 10 2 0 4 -4 4 -10z m140 -34 c0 -30 -5 -46 -15 -50 -9 -3 -15 0 -15 10 0 8
5 12 10 9 6 -4 10 10 10 34 0 23 2 41 5 41 3 0 5 -20 5 -44z m-67 27 c-7 -2
-19 -2 -25 0 -7 3 -2 5 12 5 14 0 19 -2 13 -5z m-413 -16 c0 -2 -10 -12 -22
-23 l-23 -19 19 23 c18 21 26 27 26 19z m-313 -69 c-3 -8 -6 -5 -6 6 -1 11 2
17 5 13 3 -3 4 -12 1 -19z m163 9 c-27 -15 -36 -14 -25 2 3 6 16 11 28 11 21
0 21 -1 -3 -13z m13 -29 c-16 -21 -22 -57 -9 -61 11 -4 -38 -67 -59 -76 -5 -3
-16 -11 -24 -19 -12 -12 -12 -15 0 -22 8 -6 16 -5 20 2 8 12 29 -22 28 -44 0
-7 -4 -5 -8 5 -4 10 -9 17 -11 16 -3 -1 -14 3 -26 9 -16 9 -26 8 -42 -4 -20
-14 -21 -13 -15 3 10 29 45 63 65 63 10 0 18 6 18 14 0 7 7 19 15 26 8 7 15
17 15 23 0 7 -4 7 -12 -1 -7 -7 -16 -12 -21 -12 -6 0 2 11 17 25 14 13 26 31
26 39 0 8 6 17 13 19 19 8 20 8 10 -5z m-43 -12 c0 -3 -4 -8 -10 -11 -5 -3
-10 -1 -10 4 0 6 5 11 10 11 6 0 10 -2 10 -4z m631 -93 c13 -16 12 -17 -3 -4
-10 7 -18 15 -18 17 0 8 8 3 21 -13z m-744 -40 c-3 -10 -5 -4 -5 12 0 17 2 24
5 18 2 -7 2 -21 0 -30z m63 33 c0 -2 -11 -11 -24 -19 -24 -16 -27 -12 -17 21
1 4 41 2 41 -2z m-83 -78 c-3 -8 -6 -5 -6 6 -1 11 2 17 5 13 3 -3 4 -12 1 -19z
m160 -135 c-2 -21 -4 -6 -4 32 0 39 2 55 4 38 2 -18 2 -50 0 -70z m-129 58 c3
-8 -1 -12 -9 -9 -7 2 -15 10 -17 17 -3 8 1 12 9 9 7 -2 15 -10 17 -17z m89 -3
c-3 -8 -6 -5 -6 6 -1 11 2 17 5 13 3 -3 4 -12 1 -19z m-120 -75 c-3 -10 -5 -2
-5 17 0 19 2 27 5 18 2 -10 2 -26 0 -35z m30 -45 c-3 -7 -5 -2 -5 12 0 14 2
19 5 13 2 -7 2 -19 0 -25z m773 -107 c0 -5 -7 -12 -16 -15 -14 -5 -15 -4 -4 9
14 17 20 19 20 6z m-33 -88 c-3 -10 -5 -4 -5 12 0 17 2 24 5 18 2 -7 2 -21 0
-30z m-755 -15 c-6 -6 -7 0 -4 19 5 21 7 23 10 9 2 -10 0 -22 -6 -28z m785 10
c-3 -7 -5 -2 -5 12 0 14 2 19 5 13 2 -7 2 -19 0 -25z m-77 12 c0 -5 -5 -10
-11 -10 -5 0 -7 5 -4 10 3 6 8 10 11 10 2 0 4 -4 4 -10z m-130 -50 c0 -5 -5
-10 -11 -10 -5 0 -7 5 -4 10 3 6 8 10 11 10 2 0 4 -4 4 -10z m-235 -20 c-3 -5
-16 -10 -28 -9 -20 1 -20 2 3 9 14 4 26 8 28 9 2 1 0 -3 -3 -9z m32 -16 c-3
-3 -12 -4 -19 -1 -8 3 -5 6 6 6 11 1 17 -2 13 -5z m152 -3 c10 -7 7 -9 -12 -8
-14 1 -23 5 -20 10 6 9 15 9 32 -2z m-433 -53 c2 -32 0 -35 -23 -35 -14 0 -20
3 -14 6 8 5 5 13 -9 26 -26 23 -25 33 3 38 36 7 41 3 43 -35z m664 38 c0 -3
-4 -8 -10 -11 -5 -3 -10 -1 -10 4 0 6 5 11 10 11 6 0 10 -2 10 -4z m-603 -98
c13 -12 23 -27 23 -34 0 -14 -38 -30 -47 -20 -4 3 1 6 11 6 9 0 14 5 11 10 -4
6 -15 8 -25 5 -10 -3 -22 0 -26 6 -5 9 -2 10 9 6 18 -7 24 8 7 18 -5 3 -10 10
-10 16 0 16 23 10 47 -13z m577 7 c-4 -8 -10 -15 -14 -15 -4 0 -30 -23 -58
-51 -30 -30 -58 -49 -68 -47 -15 3 -13 8 10 36 15 17 36 32 47 32 10 0 19 5
19 12 0 6 7 20 17 30 20 22 55 25 47 3z m-1 -47 c3 -8 -5 -14 -19 -14 -18 -2
-20 1 -11 12 15 17 24 17 30 2z m-505 -37 c28 -23 29 -45 2 -38 -22 6 -28 -8
-7 -16 7 -3 7 -6 1 -6 -6 -1 -19 8 -29 19 -17 18 -17 20 -2 14 10 -3 17 -1 17
5 0 6 -4 11 -10 11 -5 0 -10 7 -10 15 0 20 12 19 38 -4z m299 13 c-3 -3 -12
-4 -19 -1 -8 3 -5 6 6 6 11 1 17 -2 13 -5z m-515 -53 c2 -17 1 -28 -4 -25 -8
5 -12 54 -4 54 2 0 6 -13 8 -29z m528 25 c0 -3 -4 -8 -10 -11 -5 -3 -10 -1
-10 4 0 6 5 11 10 11 6 0 10 -2 10 -4z m-205 -57 c11 -16 1 -19 -13 -3 -7 8
-8 14 -3 14 5 0 13 -5 16 -11z m125 2 c0 -11 -31 -24 -39 -16 -3 3 1 10 9 15
19 12 30 12 30 1z m227 -7 c-3 -3 -12 -4 -19 -1 -8 3 -5 6 6 6 11 1 17 -2 13
-5z m-30 -20 c-3 -3 -12 -4 -19 -1 -8 3 -5 6 6 6 11 1 17 -2 13 -5z m-54 -11
c-7 -2 -19 -2 -25 0 -7 3 -2 5 12 5 14 0 19 -2 13 -5z m-510 -40 c-7 -2 -19
-2 -25 0 -7 3 -2 5 12 5 14 0 19 -2 13 -5z m307 -144 l0 -91 -35 4 c-19 2 -35
1 -35 -2 0 -8 -227 -35 -430 -52 -156 -13 -646 -13 -745 -1 l-60 8 -5 80 c-3
44 -4 88 -2 98 4 16 36 17 486 18 299 0 536 5 626 13 80 7 157 14 173 15 l27
1 0 -91z m685 -105 l320 -7 -545 -79 -545 -79 -760 6 c-418 3 -893 6 -1055 6
l-295 1 155 19 c668 80 676 81 726 64 65 -22 525 -32 769 -16 342 22 558 53
584 83 15 18 26 19 171 14 85 -3 299 -9 475 -12z m355 -83 c-12 -23 -29 -35
-37 -27 -7 7 26 46 39 46 5 0 4 -9 -2 -19z m-698 -83 c-5 -20 -7 -20 -10 -5
-2 12 -9 16 -20 12 -16 -6 -194 -31 -297 -41 -27 -3 -53 -11 -57 -17 -4 -7 -5
-84 -1 -172 3 -88 7 -205 8 -260 1 -55 3 -102 4 -105 2 -3 3 -65 3 -138 1
-106 3 -132 14 -128 10 4 11 -1 4 -20 -13 -32 -13 -84 -1 -84 5 0 7 13 5 29
-5 30 9 50 21 31 9 -14 35 6 35 26 0 10 6 8 20 -6 23 -23 26 -31 7 -25 -6 3
-18 -5 -26 -17 -13 -21 -13 -22 2 -10 9 8 24 12 33 10 16 -3 16 -4 -1 -18 -15
-12 -17 -12 -10 -1 5 10 4 12 -4 7 -6 -4 -9 -11 -6 -16 9 -14 -15 -23 -30 -10
-10 9 -16 7 -24 -7 -6 -10 -11 -13 -11 -8 -1 6 -5 1 -9 -10 -14 -34 -1 -386
15 -417 13 -24 12 -27 -1 -22 -18 7 -18 9 0 -41 8 -22 14 -49 14 -60 -1 -16
-2 -15 -9 5 -5 16 -8 -13 -7 -78 1 -57 4 -107 7 -112 3 -4 19 -10 35 -12 20
-2 31 -9 34 -23 2 -11 8 -24 15 -28 8 -6 7 -10 -2 -14 -10 -4 -10 -8 -1 -19 8
-10 8 -14 0 -14 -23 0 -10 -16 15 -18 14 -1 23 2 19 8 -3 6 1 10 10 10 9 0 13
-4 10 -10 -3 -5 3 -10 14 -10 12 0 21 -4 21 -10 0 -6 -27 -10 -61 -10 l-60 0
1 48 c3 71 2 72 -29 72 -16 0 -32 -6 -34 -12 -3 -7 -6 5 -6 27 -1 55 -19 537
-26 715 -4 79 -8 147 -11 151 -2 4 0 10 6 14 6 4 8 10 5 15 -5 7 -36 794 -32
796 7 3 359 52 384 53 28 1 30 -1 25 -21z m618 -3 c-13 -14 -28 -25 -33 -25
-6 0 0 11 13 25 13 14 28 25 33 25 6 0 0 -11 -13 -25z m-1072 -30 c9 -3 12
-38 12 -127 1 -68 8 -287 16 -488 8 -201 15 -381 14 -401 0 -20 8 -292 19
-605 39 -1103 43 -1235 39 -1240 -4 -4 -189 12 -1233 106 -121 11 -393 35
-604 54 -270 24 -388 39 -397 48 -15 14 -16 53 -49 1841 -8 445 -13 812 -10
817 5 8 2166 3 2193 -5z m307 5 c-17 -7 -14 -9 15 -10 l35 -2 -40 -9 c-54 -11
-104 -10 -55 2 25 5 16 6 -30 3 -79 -7 -75 3 6 15 78 11 94 12 69 1z m68 3
c-7 -2 -19 -2 -25 0 -7 3 -2 5 12 5 14 0 19 -2 13 -5z m43 -68 c-143 -174
-153 -538 -23 -802 22 -46 44 -83 49 -83 4 0 8 -10 8 -22 0 -20 -3 -18 -24 12
-13 19 -26 45 -31 58 -4 13 -9 21 -11 19 -3 -3 2 -21 10 -40 12 -30 12 -38 1
-47 -10 -8 -13 -6 -13 12 -2 66 -11 123 -21 126 -6 2 -11 11 -12 20 0 13 -2
13 -8 -3 -6 -14 -8 -8 -7 22 1 52 -7 60 -33 34 -25 -25 -46 -28 -37 -5 3 9 6
20 6 25 0 5 7 9 15 9 18 0 32 67 18 89 -5 9 -11 77 -12 152 -2 119 1 148 24
240 14 57 30 106 35 107 6 2 10 8 10 13 0 6 -4 7 -10 4 -5 -3 -10 -1 -10 5 0
7 6 10 14 7 15 -6 30 19 20 34 -3 5 0 8 7 7 6 -2 14 3 16 10 3 8 -1 10 -11 6
-9 -3 -16 -1 -16 6 0 6 4 9 9 5 5 -3 12 -1 16 5 4 6 10 8 14 6 4 -3 13 4 21
14 8 10 17 17 22 14 4 -3 -12 -29 -36 -59z m-299 13 c-3 -7 -5 -2 -5 12 0 14
2 19 5 13 2 -7 2 -19 0 -25z m473 24 c0 -4 -16 -23 -37 -42 -156 -147 -165
-584 -18 -815 40 -62 90 -113 130 -131 29 -14 29 -14 -22 -10 -101 7 -192 110
-247 281 -9 28 -19 57 -23 65 -10 25 -13 50 -19 180 -7 145 8 235 55 337 32
68 68 108 116 129 34 15 65 18 65 6z m375 -53 c-114 -136 -143 -434 -66 -666
15 -46 24 -83 20 -83 -7 0 -44 96 -55 143 -5 23 -11 28 -28 23 -11 -3 -55 -6
-97 -6 l-76 0 16 -57 c28 -99 111 -233 144 -233 6 0 0 11 -13 25 -20 21 -21
25 -6 25 11 0 14 -4 10 -12 -5 -8 -2 -9 12 -4 10 4 15 4 11 0 -4 -4 -2 -13 4
-21 9 -10 8 -13 -2 -13 -10 0 -9 -4 2 -16 10 -9 36 -16 65 -17 43 -2 49 0 46
17 -3 18 -3 18 14 2 16 -17 18 -17 27 -1 6 12 5 22 -7 33 -10 11 -16 12 -16 4
0 -7 5 -12 10 -12 6 0 10 -5 10 -11 0 -8 -5 -7 -15 1 -9 7 -13 20 -10 28 7 20
-5 38 -16 21 -4 -7 -11 -10 -16 -6 -4 5 -1 12 7 17 12 7 12 12 2 22 -6 6 -12
19 -12 28 0 8 14 -6 30 -32 16 -25 45 -62 64 -81 l35 -35 -84 -7 c-74 -6 -89
-5 -129 15 -59 28 -101 77 -142 164 -59 125 -77 220 -72 370 6 148 28 235 78
304 44 62 72 75 179 88 53 6 98 12 99 13 2 0 -8 -13 -23 -30z m231 6 c76 -45
143 -157 180 -305 28 -111 26 -310 -3 -405 -27 -85 -73 -157 -117 -185 -39
-24 -105 -26 -145 -6 -70 37 -143 154 -183 293 -32 113 -33 327 -1 429 55 174
159 244 269 179z m-1109 -157 c-2 -24 -4 -5 -4 42 0 47 2 66 4 43 2 -24 2 -62
0 -85z m236 100 c9 -31 2 -33 -11 -3 -6 14 -8 25 -3 25 5 0 11 -10 14 -22z
m-16 -95 l-15 -38 1 36 c1 21 6 34 11 31 9 -5 7 7 -8 53 -4 11 1 6 10 -12 15
-29 16 -35 1 -70z m326 26 c-78 -163 -66 -468 27 -651 l30 -59 -42 3 c-40 3
-45 7 -76 58 -95 160 -122 433 -61 615 l24 70 55 6 c30 3 58 6 61 7 3 1 -5
-21 -18 -49z m-2871 -222 l3 -117 -32 0 c-29 0 -33 4 -42 38 -14 48 -14 163 0
199 5 15 22 48 37 73 l27 45 2 -60 c2 -33 4 -113 5 -178z m2355 171 c-2 -13
-4 -3 -4 22 0 25 2 35 4 23 2 -13 2 -33 0 -45z m-26 -189 l-11 -34 5 34 c3 18
6 48 7 65 l1 31 4 -31 c2 -18 -1 -47 -6 -65z m26 69 c-3 -8 -6 -5 -6 6 -1 11
2 17 5 13 3 -3 4 -12 1 -19z m10 -105 c-3 -10 -5 -2 -5 17 0 19 2 27 5 18 2
-10 2 -26 0 -35z m-2357 -256 l0 -143 -60 0 -61 1 5 30 c2 16 17 81 32 143 27
109 29 112 56 112 l28 0 0 -143z m2363 -19 c7 -4 4 -7 -8 -6 -18 2 -20 7 -15
67 l5 66 3 -60 c2 -33 8 -63 15 -67z m167 83 c0 -12 -31 -43 -37 -37 -3 2 4
13 14 24 21 24 23 25 23 13z m416 -39 c-10 -2 -22 0 -28 6 -6 6 0 7 19 4 21
-5 23 -7 9 -10z m-470 -37 c1 -15 -3 -25 -12 -25 -8 0 -14 -5 -14 -12 0 -6 -3
-8 -7 -4 -5 4 1 14 11 22 11 8 15 14 8 14 -6 0 -9 7 -6 15 9 23 19 18 20 -10z
m621 -7 c-3 -8 -6 -5 -6 6 -1 11 2 17 5 13 3 -3 4 -12 1 -19z m-147 -28 c12
-23 12 -24 -3 -11 -10 7 -17 20 -17 29 0 18 3 16 20 -18z m41 20 c4 -19 7
-120 4 -120 -8 0 -36 62 -31 68 3 3 6 -1 7 -9 0 -8 4 -6 9 6 12 27 12 47 1 41
-5 -3 -14 1 -21 9 -9 11 -8 14 9 12 12 -1 21 -4 22 -7z m-596 -19 c-3 -6 -11
-11 -17 -11 -6 0 -6 6 2 15 14 17 26 13 15 -4z m-52 -12 c4 -16 3 -18 -9 -8
-7 6 -11 15 -8 20 8 13 11 11 17 -12z m756 10 c4 6 12 -2 18 -19 6 -17 7 -30
2 -30 -5 0 -9 8 -9 18 0 14 -2 15 -10 2 -6 -9 -10 -10 -10 -3 0 6 -2 17 -3 25
-2 7 -2 9 1 4 2 -4 7 -3 11 3z m-619 -10 c0 -20 -52 -61 -62 -51 -6 6 1 19 19
36 30 28 43 33 43 15z m-67 -14 c-3 -9 -8 -14 -10 -11 -3 3 -2 9 2 15 9 16 15
13 8 -4z m100 8 c-7 -2 -13 -11 -13 -19 0 -9 -5 -12 -10 -9 -13 8 6 35 24 34
7 0 6 -2 -1 -6z m37 -28 c0 -5 -5 -3 -10 5 -5 8 -10 20 -10 25 0 6 5 3 10 -5
5 -8 10 -19 10 -25z m-176 -26 c-3 -5 -10 -7 -15 -3 -5 3 -7 10 -3 15 3 5 10
7 15 3 5 -3 7 -10 3 -15z m1279 -221 c-2 -5 -14 -8 -27 -8 -33 0 -102 -54
-134 -103 -15 -24 -31 -45 -36 -48 -4 -2 -18 30 -30 71 -12 41 -25 85 -29 96
-7 19 -3 22 37 28 53 8 115 51 146 101 l23 37 27 -84 c15 -45 25 -86 23 -90z
m-1176 144 c-18 -4 -18 -5 -1 -23 9 -10 13 -19 8 -19 -5 0 -16 8 -25 18 -18
21 -4 43 21 33 12 -4 11 -6 -3 -9z m-2585 -12 c-11 -12 -32 -44 -48 -73 -26
-47 -29 -61 -29 -148 l0 -96 -25 7 c-29 8 -38 33 -39 117 -2 104 65 213 131
213 29 0 29 0 10 -20z m88 -17 c-58 -66 -85 -137 -85 -226 0 -62 -3 -77 -15
-75 -32 7 -40 145 -13 218 21 56 85 120 120 120 l25 0 -32 -37z m2410 7 c10 0
22 5 25 10 3 6 22 -7 41 -27 20 -21 34 -33 33 -28 -1 6 2 21 8 34 l10 25 11
-32 c7 -19 7 -34 1 -37 -5 -4 -10 4 -10 17 l-2 23 -4 -22 c-5 -26 -34 -31 -53
-8 -7 8 -17 12 -23 8 -5 -3 -7 -1 -3 5 10 16 -11 24 -44 17 -38 -8 -43 -29
-33 -131 5 -43 5 -92 2 -109 -6 -28 -10 17 -15 185 -1 41 26 103 34 79 2 -5
12 -9 22 -9z m576 -21 c18 -20 18 -20 -6 -15 -14 2 -34 8 -45 12 -19 8 -19 8
5 15 14 4 25 7 26 8 0 1 9 -8 20 -20z m-2959 -149 l0 -140 -34 0 c-27 0 -34 4
-31 18 1 9 -1 23 -6 30 -17 27 4 138 34 186 16 25 31 46 34 46 2 0 3 -63 3
-140z m2570 123 c-4 -3 1 -15 10 -26 13 -15 14 -18 3 -12 -35 19 -42 28 -28
36 16 10 24 11 15 2z m43 -25 c0 -6 -6 -5 -15 2 -8 7 -15 14 -15 16 0 2 7 1
15 -2 8 -4 15 -11 15 -16z m-126 -1 c3 3 12 0 21 -7 11 -9 15 -9 15 -1 0 7 4
10 10 6 5 -3 7 -12 3 -20 -3 -8 -1 -15 5 -15 6 0 12 4 14 9 2 5 11 4 20 -3 15
-11 10 -13 -36 -12 -44 0 -53 3 -48 16 4 11 0 10 -16 -4 -25 -22 -37 -15 -37
19 -1 20 2 22 21 15 12 -5 25 -6 28 -3z m193 -19 c-3 -7 -5 -2 -5 12 0 14 2
19 5 13 2 -7 2 -19 0 -25z m538 -10 l130 3 27 -88 c15 -48 30 -100 33 -115 l7
-28 -225 0 -225 0 -26 78 c-14 42 -26 80 -26 83 0 4 12 6 28 6 211 -1 412 5
412 13 0 6 -10 11 -22 11 -18 1 -19 2 -5 6 47 12 -7 18 -162 17 -156 -1 -173
-3 -186 -20 -13 -16 -14 -17 -9 -1 5 13 2 16 -10 11 -9 -3 -16 -10 -16 -15 0
-5 -9 -9 -20 -9 -35 0 -21 19 23 30 23 6 53 15 67 20 14 5 36 6 50 2 14 -4 84
-6 155 -4z m-506 -158 c11 -74 21 -146 20 -160 -1 -25 -31 131 -47 248 -16
117 5 48 27 -88z m401 123 c0 -5 -11 -8 -24 -8 -13 0 -22 3 -19 8 2 4 13 7 24
7 10 0 19 -3 19 -7z m113 0 c-7 -2 -19 -2 -25 0 -7 3 -2 5 12 5 14 0 19 -2 13
-5z m491 -52 c39 -26 82 -92 102 -155 20 -64 29 -253 16 -326 -32 -172 -130
-309 -222 -310 -94 0 -176 144 -187 330 -17 296 147 556 291 461z m-1027 -158
c-3 -10 -5 -2 -5 17 0 19 2 27 5 18 2 -10 2 -26 0 -35z m-2691 -17 c1 0 3 -75
5 -166 3 -106 0 -164 -6 -163 -5 0 -79 7 -163 14 -147 12 -153 14 -148 33 3
12 22 83 43 159 l38 137 115 -6 c63 -4 116 -7 116 -8z m3041 -38 c-15 -60 -29
-207 -25 -260 l4 -59 -35 3 -36 3 0 130 c0 72 4 147 8 168 8 35 10 37 49 37
37 0 40 -2 35 -22z m130 0 c-19 -75 -28 -166 -25 -237 l3 -81 -36 0 c-30 0
-38 4 -43 23 -14 52 -2 242 19 305 3 7 22 12 46 12 38 0 41 -2 36 -22z m238 5
c-17 -44 -36 -203 -31 -261 l5 -63 -92 3 -92 3 0 130 c0 81 5 144 13 168 l14
37 95 0 c87 0 95 -2 88 -17z m-646 -280 c-7 -29 -16 -53 -21 -53 -11 0 -10 4
7 48 10 23 14 55 11 78 -3 21 -7 68 -10 104 -5 52 -3 46 10 -30 13 -79 14
-104 3 -147z m-51 -28 c-6 -14 -13 -24 -14 -22 -6 6 9 47 17 47 5 0 3 -11 -3
-25z m-3022 -51 c-20 -26 -48 -80 -63 -121 -28 -74 -28 -74 -63 -71 -31 3 -36
0 -42 -27 -6 -23 -6 -19 -4 16 4 52 46 151 79 188 31 34 78 61 105 61 22 0 22
-2 -12 -46z m98 -11 c-39 -51 -66 -106 -85 -175 -6 -24 -14 -37 -16 -30 -3 6
-15 12 -28 12 l-24 0 20 57 c38 111 95 183 145 183 23 0 23 -1 -12 -47z m181
31 c18 -5 16 -10 -26 -53 -31 -32 -56 -72 -75 -120 l-29 -72 -47 7 c-34 4 -48
2 -48 -6 0 -7 8 -10 19 -7 32 8 61 -20 60 -56 l0 -32 -16 32 c-28 57 -72 50
-74 -11 -2 -31 -2 -31 -6 -3 -11 69 43 223 100 284 34 37 45 43 81 43 22 0 50
-3 61 -6z m2749 -90 c-13 -50 -23 -67 -43 -77 -41 -20 -88 -91 -101 -153 -12
-59 -6 -154 12 -183 6 -11 5 -27 -6 -51 l-15 -35 -1 57 c0 31 -5 60 -11 63
-13 9 -7 160 9 195 6 14 16 39 23 57 7 17 16 30 20 27 4 -2 14 7 23 20 8 14
26 26 38 28 19 2 26 14 40 68 9 36 17 67 18 70 1 3 4 -1 7 -8 3 -7 -3 -42 -13
-78z m-27 19 c-3 -10 -5 -2 -5 17 0 19 2 27 5 18 2 -10 2 -26 0 -35z m690 33
c1 -1 -28 -94 -65 -206 -48 -147 -71 -205 -82 -205 -77 1 -450 18 -450 20 0 5
152 389 157 398 3 6 432 -1 440 -7z m-3367 -73 c0 -40 -6 -68 -19 -90 -33 -53
-51 -132 -51 -217 1 -106 14 -163 51 -208 21 -27 29 -47 29 -78 l0 -42 -32 19
c-38 22 -98 115 -98 152 0 13 3 22 6 18 8 -8 34 18 34 35 0 14 -39 44 -52 40
-5 -1 -8 6 -8 15 0 10 -3 28 -6 40 -4 16 -1 24 10 28 9 3 22 7 30 9 11 4 11
14 3 55 -5 28 -13 51 -18 51 -16 0 16 104 50 160 20 34 53 70 63 70 4 0 8 -26
8 -57z m2670 -3 c0 -5 -2 -10 -4 -10 -3 0 -8 5 -11 10 -3 6 -1 10 4 10 6 0 11
-4 11 -10z m748 -23 c15 -42 75 -113 113 -132 34 -18 120 -20 137 -3 16 16 15
3 -2 -58 -8 -27 -22 -75 -31 -108 l-16 -58 -20 40 c-30 61 -98 118 -148 127
-34 6 -52 2 -92 -18 -31 -15 -48 -20 -45 -11 3 7 22 67 42 133 21 67 41 121
44 121 3 0 11 -15 18 -33z m-793 13 c3 -5 -1 -10 -9 -10 -9 0 -16 5 -16 10 0
6 4 10 9 10 6 0 13 -4 16 -10z m-131 -58 c-1 -7 -2 -21 -2 -32 -2 -15 -9 -20
-31 -20 -16 0 -38 -3 -48 -7 -16 -6 -15 -8 7 -14 24 -7 24 -7 3 -8 -23 -1 -23
-3 -23 -137 0 -115 2 -135 14 -131 11 4 13 1 9 -10 -7 -17 6 -16 51 3 14 5 17
4 12 -4 -4 -7 -3 -12 3 -12 13 0 33 -73 25 -93 -4 -12 -23 -14 -90 -13 l-84 1
0 -30 c0 -16 4 -56 10 -88 5 -33 10 -133 10 -223 1 -104 5 -164 12 -164 6 0 8
6 5 14 -3 7 0 19 6 25 7 7 7 11 1 11 -6 0 -10 42 -11 108 0 106 0 106 7 32 5
-41 6 -86 3 -100 -5 -24 -5 -25 10 -5 9 11 17 30 17 42 0 12 5 25 10 28 14 9
13 -5 -5 -55 -8 -23 -15 -53 -15 -66 0 -22 -23 -54 -40 -54 -8 0 -15 129 -24
435 -3 83 -3 142 0 133 7 -24 70 -39 117 -28 49 11 51 13 40 47 -9 24 -14 28
-44 25 -64 -6 -70 12 -67 194 l3 159 45 5 c40 4 45 7 42 29 -3 16 1 22 10 19
7 -3 13 -10 12 -16z m46 -16 c0 -8 -4 -18 -10 -21 -5 -3 -10 3 -10 14 0 12 5
21 10 21 6 0 10 -6 10 -14z m-30 -81 c0 -5 -5 -3 -10 5 -5 8 -10 20 -10 25 0
6 5 3 10 -5 5 -8 10 -19 10 -25z m-2847 8 c3 6 6 -7 6 -30 1 -49 -5 -54 -19
-17 -7 17 -15 24 -25 20 -9 -3 -15 0 -15 8 0 20 11 26 31 16 12 -7 19 -6 22 3z
m-320 -56 c15 -6 -376 -197 -401 -196 -9 0 -48 15 -87 33 l-69 32 173 90 173
90 100 -22 c54 -13 104 -25 111 -27z m154 -4 c-3 -10 -5 -4 -5 12 0 17 2 24 5
18 2 -7 2 -21 0 -30z m70 -30 c-2 -16 -4 -5 -4 22 0 28 2 40 4 28 2 -13 2 -35
0 -50z m430 -40 c-2 -60 0 -121 4 -137 7 -22 6 -27 -3 -18 -21 21 -23 262 -2
262 2 0 3 -48 1 -107z m-364 -25 c8 -5 6 -8 -5 -8 -16 0 -18 9 -16 63 l2 62 3
-55 c3 -30 10 -58 16 -62z m-233 80 c0 -2 22 -133 50 -292 27 -160 49 -291 47
-292 -4 -5 -423 -223 -438 -229 -14 -5 -19 5 -29 65 -9 55 -9 74 0 85 23 28
37 16 44 -35 l7 -51 160 82 c89 45 163 88 166 96 3 7 -6 84 -20 171 -14 86
-31 192 -38 235 -6 42 -15 77 -20 77 -4 0 -78 -37 -164 -81 l-157 -82 4 -48
c4 -34 1 -52 -9 -60 -7 -7 -15 -10 -17 -8 -2 2 -7 39 -11 82 l-7 77 208 103
c198 98 224 110 224 105z m97 -30 c-3 -8 -6 -5 -6 6 -1 11 2 17 5 13 3 -3 4
-12 1 -19z m4018 -41 c73 -77 107 -235 85 -395 -19 -137 -59 -230 -129 -305
-71 -76 -137 -81 -201 -17 -124 124 -116 483 14 669 44 61 91 91 145 91 39 0
49 -5 86 -43z m-3711 -38 c-5 -9 -87 5 -91 16 -1 6 11 11 29 12 17 1 36 7 42
13 8 8 13 4 17 -12 3 -13 5 -26 3 -29z m-139 21 c3 -5 1 -10 -4 -10 -6 0 -11
5 -11 10 0 6 2 10 4 10 3 0 8 -4 11 -10z m-70 -45 c55 -8 107 -15 115 -15 8
-1 -39 -17 -104 -36 -65 -19 -121 -33 -122 -31 -2 2 -8 25 -13 50 -10 55 -19
53 124 32z m3240 -12 c-48 -119 -49 -124 -49 -295 l-1 -168 -28 -6 c-16 -3
-31 -4 -33 -1 -3 3 -12 29 -20 58 -26 99 -16 251 26 387 l13 42 50 0 c43 0 48
-2 42 -17z m-3933 -53 c14 -7 29 -22 32 -34 10 -41 19 -126 13 -126 -16 0
-159 74 -162 84 -2 6 -6 39 -10 74 l-6 62 53 -24 c29 -13 65 -29 80 -36z
m4043 43 c-36 -95 -49 -175 -49 -303 -1 -114 3 -144 21 -192 20 -54 20 -58 4
-58 -31 0 -69 75 -88 171 -14 76 -15 103 -6 177 6 48 21 117 33 155 21 66 21
67 56 67 30 0 35 -3 29 -17z m263 2 c1 -1 -7 -22 -18 -47 -52 -119 -71 -362
-36 -473 8 -27 14 -50 13 -51 -1 -1 -38 1 -83 3 -76 5 -82 7 -98 34 -26 44
-46 154 -46 258 0 92 15 173 47 253 l16 39 101 -7 c55 -3 102 -7 104 -9z
m-3874 -191 c34 -210 35 -196 -15 -176 -23 9 -45 25 -50 36 -12 30 -49 288
-43 298 3 5 20 14 37 22 40 16 38 22 71 -180z m3197 145 c-9 -22 -10 -22 -10
-3 -1 11 2 24 6 27 12 12 14 0 4 -24z m-2814 -15 c-3 -3 -12 -4 -19 -1 -8 3
-5 6 6 6 11 1 17 -2 13 -5z m-40 -10 c-3 -3 -12 -4 -19 -1 -8 3 -5 6 6 6 11 1
17 -2 13 -5z m-40 -10 c-3 -3 -12 -4 -19 -1 -8 3 -5 6 6 6 11 1 17 -2 13 -5z
m2913 -28 c0 -11 -45 -159 -57 -186 -4 -8 -8 -22 -9 -30 -8 -44 -26 -105 -35
-119 -8 -12 -9 -10 -4 9 4 14 7 34 6 45 0 10 4 25 10 31 6 7 9 19 7 26 -2 8 4
31 13 53 37 91 43 112 43 151 0 30 4 40 13 37 7 -3 13 -10 13 -17z m-2980 6
c0 -4 13 -15 29 -25 34 -20 115 -22 173 -5 33 10 41 9 49 -3 8 -10 9 -7 4 11
-6 24 -5 24 9 6 21 -26 20 -33 -6 -41 -13 -4 -84 -26 -159 -51 -75 -24 -141
-44 -146 -44 -6 0 -15 32 -20 71 -9 67 -8 71 11 79 27 11 56 12 56 2z m321
-109 c12 -15 12 -16 -4 -10 -10 4 -28 7 -40 8 -21 0 -21 1 -2 9 29 12 31 12
46 -7z m2486 -55 c-3 -8 -6 -5 -6 6 -1 11 2 17 5 13 3 -3 4 -12 1 -19z m69
-34 c-4 -9 -9 -15 -11 -12 -3 3 -3 13 1 22 4 9 9 15 11 12 3 -3 3 -13 -1 -22z
m-19 -76 c-3 -8 -6 -5 -6 6 -1 11 2 17 5 13 3 -3 4 -12 1 -19z m-3088 -38 c-1
-8 -217 -115 -222 -110 -2 3 -7 21 -11 41 l-6 36 77 35 c76 36 76 36 120 20
23 -9 43 -19 42 -22z m-337 -30 c30 -14 28 -30 -4 -30 -16 0 -109 43 -148 68
-2 2 2 7 9 12 13 8 40 -2 143 -50z m-90 -38 l66 -33 10 -71 c6 -40 9 -74 8
-76 -2 -2 -36 13 -74 32 -75 38 -74 35 -88 140 -4 28 -3 47 2 45 5 -2 39 -19
76 -37z m3525 -4 c-3 -8 -6 -5 -6 6 -1 11 2 17 5 13 3 -3 4 -12 1 -19z m321
-35 c-8 -10 -76 -89 -152 -175 -152 -175 -137 -167 -257 -150 l-47 7 119 145
119 145 103 21 c133 28 134 29 115 7z m225 -237 c129 -200 153 -243 144 -256
-43 -58 -309 -380 -315 -380 -5 0 -25 29 -46 65 -31 53 -36 68 -26 80 18 22
26 19 51 -22 12 -21 24 -40 26 -42 2 -3 10 4 17 15 8 10 61 75 119 144 58 69
102 130 99 136 -46 77 -259 404 -264 404 -3 0 -58 -61 -121 -136 l-114 -136
26 -49 c19 -35 23 -51 15 -59 -14 -14 -98 115 -87 134 24 39 308 355 314 348
4 -4 77 -115 162 -246z m-2008 148 c1022 -90 1344 -121 1352 -128 2 -1 -20
-28 -47 -58 -28 -31 -50 -58 -50 -61 0 -3 23 -43 50 -90 52 -88 64 -121 30
-77 l-20 25 6 -32 c5 -27 3 -32 -17 -35 -16 -2 -24 -10 -24 -23 0 -18 6 -20
75 -18 41 1 84 7 95 12 11 5 36 13 55 18 29 8 19 10 -53 9 -52 -1 -87 3 -87 9
0 10 224 4 234 -6 9 -8 -214 -58 -290 -65 -42 -4 -131 0 -220 9 -928 98 -1593
169 -1611 173 -12 2 -27 12 -32 22 -5 9 -12 97 -16 195 l-7 178 33 -5 c19 -4
264 -27 544 -52z m2147 -10 l48 -6 -56 -71 c-31 -40 -59 -73 -63 -75 -6 -2
-20 19 -90 132 l-25 39 70 -7 c38 -4 90 -9 116 -12z m77 -179 l-74 -96 -22 28
c-13 15 -23 33 -23 38 0 6 30 50 66 99 l66 88 30 -30 31 -30 -74 -97z m-329
-10 c46 -71 94 -147 107 -167 l23 -38 -54 0 -54 0 -81 131 c-45 72 -81 133
-81 136 0 7 52 74 55 71 2 -2 40 -61 85 -133z m500 48 c0 -41 -28 -96 -57
-111 -19 -10 -136 -43 -139 -39 -1 1 30 44 68 95 60 79 74 92 99 92 27 0 29
-3 29 -37z m-589 -163 c13 -25 30 -51 37 -59 7 -7 12 -15 10 -16 -4 -5 -221
-65 -232 -65 -4 0 8 18 28 41 l37 40 -26 45 -27 45 26 32 c66 82 56 79 91 28
17 -25 42 -66 56 -91z m-336 40 c23 0 35 -6 43 -22 6 -13 23 -43 38 -67 l27
-44 -94 8 c-53 4 -97 12 -101 18 -4 7 -22 36 -40 66 l-32 54 64 -6 c34 -4 77
-7 95 -7z m-1500 -165 c171 -19 311 -35 312 -35 5 0 -56 -432 -62 -438 -4 -5
-615 105 -622 111 -4 4 35 329 39 332 2 1 48 -3 103 -10 108 -13 127 -11 118
11 -3 10 0 12 10 8 8 -3 18 0 23 7 5 9 2 10 -9 6 -10 -4 -17 -1 -17 5 0 9 -3
9 -12 0 -7 -7 -19 -12 -28 -11 -11 0 -9 3 5 10 15 7 8 8 -27 6 -25 -1 -44 1
-41 6 5 9 -14 9 -58 0 -28 -5 -30 -7 -14 -14 19 -7 18 -8 -2 -8 -13 -1 -23 4
-23 9 0 6 10 15 23 20 22 10 22 10 -3 7 -15 -1 -28 -10 -32 -22 -5 -17 -6 -15
-7 8 -1 15 2 27 7 27 4 0 147 -16 317 -35z m-215 -18 c10 -4 8 -6 -7 -6 -16
-1 -23 5 -23 17 0 10 3 13 8 6 4 -6 14 -14 22 -17z m2214 -34 c-67 -80 -118
-138 -122 -138 -1 0 -12 14 -23 31 l-20 32 58 66 c56 65 58 66 106 66 l49 0
-48 -57z m-2127 21 c-3 -3 -12 -4 -19 -1 -8 3 -5 6 6 6 11 1 17 -2 13 -5z
m1538 -3 c14 -6 4 -10 -38 -12 -60 -4 -80 7 -24 14 17 2 34 4 37 5 3 0 14 -3
25 -7z m-670 -53 c6 -6 -8 -9 -40 -8 -69 2 -73 1 -51 -15 19 -15 19 -15 -2
-15 -12 0 -22 -6 -22 -14 0 -9 19 -15 63 -20 34 -4 122 -14 196 -23 119 -14
135 -14 145 -1 6 8 21 20 33 27 20 10 22 9 16 -6 -3 -10 -10 -23 -15 -29 -6
-8 14 -15 67 -23 42 -6 82 -11 90 -11 21 0 19 18 -2 23 -14 4 -14 5 3 6 14 1
23 9 26 25 5 22 2 24 -65 30 -38 3 -72 4 -75 1 -3 -3 8 -5 24 -6 16 0 38 -5
49 -10 14 -6 6 -7 -25 -3 -24 4 -54 12 -65 19 -24 15 -179 29 -171 16 4 -5
-15 -3 -41 5 -27 7 -65 16 -87 19 -21 4 -36 9 -33 12 4 4 193 -14 342 -32 17
-2 60 -7 97 -11 l67 -7 -5 -46 c-11 -91 -85 -605 -87 -608 -3 -3 -3 -3 -362
62 -143 26 -261 48 -262 49 -4 3 56 495 67 555 5 30 10 55 10 56 0 7 107 -9
115 -17z m-325 -23 c13 -14 19 -25 13 -25 -5 0 -20 11 -33 25 -13 14 -19 25
-13 25 5 0 20 -11 33 -25z m370 -5 c0 -5 -12 -10 -27 -10 -22 0 -25 2 -13 10
20 13 40 13 40 0z m-387 -29 c4 -1 13 -1 21 -1 12 0 13 -7 5 -32 -5 -18 -9
-55 -9 -82 0 -45 -3 -52 -50 -97 -46 -45 -69 -61 -56 -41 2 4 12 61 21 127 21
149 20 148 42 136 10 -5 21 -9 26 -10z m302 9 c-3 -5 -10 -10 -16 -10 -5 0 -9
5 -9 10 0 6 7 10 16 10 8 0 12 -4 9 -10z m155 0 c0 -5 -6 -10 -14 -10 -8 0
-18 5 -21 10 -3 6 3 10 14 10 12 0 21 -4 21 -10z m-80 -10 c0 -5 -5 -10 -11
-10 -5 0 -7 5 -4 10 3 6 8 10 11 10 2 0 4 -4 4 -10z m193 3 c-7 -2 -19 -2 -25
0 -7 3 -2 5 12 5 14 0 19 -2 13 -5z m70 0 c-7 -2 -21 -2 -30 0 -10 3 -4 5 12
5 17 0 24 -2 18 -5z m-148 -13 c-3 -5 -23 -9 -43 -9 l-37 1 30 8 c44 11 57 11
50 0z m81 -10 c18 0 36 -5 40 -12 5 -8 0 -9 -17 -5 -13 4 -41 7 -62 7 -32 0
-36 2 -25 14 8 9 17 11 23 5 5 -5 24 -9 41 -9z m783 1 c21 -6 22 -8 8 -20 -13
-10 -36 -11 -97 -6 -69 6 -79 9 -69 22 12 14 105 17 158 4z m-1264 -21 c27
-30 12 -34 -15 -5 -13 14 -19 25 -13 25 5 0 18 -9 28 -20z m705 -1 c-25 -4
-56 -7 -70 -7 -23 0 -22 1 5 8 17 4 48 8 70 8 l40 -1 -45 -8z m565 -75 c11
-13 30 -42 43 -64 l23 -40 -48 0 c-102 0 -116 7 -156 71 -20 32 -37 62 -37 65
0 3 35 3 78 -1 64 -6 80 -11 97 -31z m-1205 16 c0 -5 -4 -10 -10 -10 -5 0 -10
5 -10 10 0 6 5 10 10 10 6 0 10 -4 10 -10z m945 -41 c28 -43 30 -49 15 -49 -5
0 -10 8 -10 18 0 14 -2 15 -10 2 -6 -10 -10 -11 -10 -2 0 8 -25 13 -87 14
l-88 2 85 5 c52 4 88 2 93 -4 5 -6 7 -4 4 5 -2 8 -13 14 -23 13 -10 -1 -13 0
-6 3 32 15 5 24 -69 24 -69 0 -80 -2 -75 -16 3 -9 2 -12 -4 -9 -6 4 -10 -5 -9
-22 1 -15 -3 -54 -10 -86 -7 -32 -10 -61 -7 -64 3 -4 6 2 6 12 0 10 3 16 6 12
8 -8 -6 -48 -15 -43 -4 3 -7 -3 -8 -12 -4 -55 -3 -81 3 -115 5 -32 2 -43 -17
-64 l-24 -26 27 19 c15 10 28 28 28 39 1 12 4 15 7 7 4 -10 8 -10 19 -1 8 6
11 16 7 22 -4 7 0 8 11 4 18 -7 61 15 50 26 -3 3 5 3 18 0 18 -4 20 -3 8 6
-12 8 -9 10 15 9 47 -1 129 14 137 26 12 17 9 58 -2 51 -6 -4 -8 -10 -5 -15 3
-4 -5 -6 -17 -2 l-22 5 22 8 c35 13 38 38 9 90 -31 58 -28 63 8 12 21 -31 25
-49 25 -105 l0 -68 -34 0 c-84 0 -195 -52 -285 -134 l-34 -31 6 36 c3 21 17
124 32 230 15 107 28 199 29 204 2 6 38 9 90 7 l87 -3 24 -40z m29 -109 c-6
-5 -24 21 -24 34 0 6 6 1 14 -10 8 -10 12 -21 10 -24z m-217 -12 c-3 -7 -5 -2
-5 12 0 14 2 19 5 13 2 -7 2 -19 0 -25z m-907 12 c0 -5 -10 -19 -22 -31 -20
-19 -20 -21 -4 -15 16 5 17 4 6 -9 -8 -10 -9 -15 -2 -15 6 0 9 -6 6 -14 -3 -8
-12 -63 -20 -123 -13 -100 -13 -102 -9 -28 3 44 7 98 10 120 2 22 2 32 -1 23
-3 -10 -13 -18 -21 -18 -14 0 -14 2 1 19 10 11 16 25 14 32 -8 23 -47 -46 -41
-70 4 -17 8 -19 14 -9 6 9 9 9 9 1 0 -22 -21 -25 -27 -4 -5 20 -6 20 -27 -6
-16 -21 -20 -39 -19 -80 2 -28 -2 -55 -7 -58 -6 -3 -10 2 -11 12 -1 43 -18
-28 -23 -98 -3 -52 -2 -62 3 -34 6 32 8 22 7 -45 0 -48 4 -94 11 -105 11 -19
12 -18 24 8 7 15 18 27 25 27 27 0 24 -21 -8 -51 -18 -17 -27 -28 -20 -24 8 4
12 2 11 -6 -2 -8 3 -24 11 -36 11 -17 18 -20 33 -11 10 5 21 7 25 4 3 -3 0 -6
-7 -6 -7 0 -9 -5 -6 -10 4 -6 11 -8 16 -5 5 3 6 -2 2 -11 -6 -16 -7 -16 -18 0
-7 9 -16 16 -20 16 -5 0 0 -9 10 -20 10 -11 21 -17 26 -15 4 3 10 -3 13 -12 3
-10 3 14 1 52 -3 46 -1 65 5 54 5 -9 11 -42 12 -73 2 -31 6 -56 11 -56 4 0 7
-5 7 -10 0 -16 -51 14 -87 52 -154 162 -133 456 46 661 35 39 41 43 41 27z
m-462 -71 c247 -45 291 -56 286 -69 -32 -75 -55 -161 -61 -227 l-8 -79 -260
52 c-143 28 -277 54 -297 58 -44 8 -65 39 -74 110 -13 95 44 221 96 212 14 -3
157 -28 318 -57z m1407 -92 c17 0 24 -1 17 -4 -6 -2 -10 -8 -7 -13 3 -4 -6 -7
-19 -6 -13 0 -24 3 -24 6 1 3 -2 13 -7 23 -6 14 -10 15 -23 5 -13 -11 -14 -10
-9 2 4 8 10 24 14 34 5 16 8 13 17 -15 10 -29 16 -34 41 -32z m202 37 c-3 -3
-12 -4 -19 -1 -8 3 -5 6 6 6 11 1 17 -2 13 -5z m5 -91 c-18 -2 -30 -8 -27 -14
3 -5 0 -6 -8 -3 -15 5 -112 -28 -141 -49 -17 -12 -14 -14 25 -15 63 -3 67 -17
4 -17 -29 0 -51 3 -48 7 7 13 -11 8 -31 -7 -11 -8 -20 -27 -21 -43 -1 -15 -5
-33 -9 -40 -4 -7 -4 -16 -1 -22 3 -5 3 -16 -2 -22 -4 -8 -10 0 -14 22 -4 20
-4 36 2 38 5 2 9 8 9 14 0 6 -6 6 -15 -2 -8 -7 -15 -18 -15 -25 0 -6 -9 -20
-20 -30 -24 -21 -18 -35 13 -29 20 4 20 4 -3 -6 -13 -6 -28 -16 -32 -23 -6 -9
-8 -9 -8 1 0 7 -5 10 -12 6 -7 -5 -5 -11 7 -21 11 -7 16 -14 12 -14 -4 -1 -11
-2 -16 -3 -16 -2 -22 -13 -28 -48 -2 -18 -9 -37 -14 -42 -12 -13 -12 -73 1
-81 6 -3 10 -12 9 -18 0 -9 -2 -9 -6 1 -2 6 -9 12 -15 12 -15 0 -2 -97 16
-116 20 -20 21 -31 1 -14 -12 10 -15 10 -15 -4 0 -9 5 -16 11 -16 6 0 9 -8 7
-18 -3 -10 2 -24 10 -31 12 -12 13 -11 8 10 l-6 24 11 -22 c14 -27 33 -31 25
-5 -4 13 3 25 24 41 35 25 62 25 36 -1 -21 -22 -21 -34 1 -17 14 12 16 12 11
-1 -3 -8 -15 -14 -26 -13 -24 3 -39 -20 -37 -54 1 -12 -1 -20 -6 -17 -4 2 -5
12 -2 22 5 13 3 14 -7 6 -14 -14 -4 -57 12 -48 6 4 8 3 5 -3 -8 -13 58 -67
109 -88 21 -9 66 -18 99 -20 41 -3 52 -1 35 5 -24 8 -24 8 -2 9 12 1 22 5 22
10 0 4 10 6 23 4 21 -4 22 -2 19 56 -2 34 -8 61 -13 61 -6 0 -7 -4 -4 -10 6
-10 -39 -5 -89 11 -36 11 -48 3 -15 -10 16 -7 19 -10 7 -10 -9 -1 -19 3 -22 8
-4 5 -19 3 -37 -6 -17 -8 -33 -12 -36 -9 -4 3 -1 6 6 6 7 0 9 5 6 10 -4 6 -12
7 -18 4 -8 -5 -8 -3 1 7 9 10 15 10 24 1 20 -20 32 -13 14 7 -10 11 -25 17
-34 14 -11 -3 -13 -2 -5 4 24 18 16 76 -13 87 -12 5 -15 24 -13 100 1 52 -2
99 -5 105 -4 6 0 11 11 11 11 0 28 17 42 43 l24 42 -23 -20 c-13 -11 -20 -15
-17 -9 4 7 -1 18 -10 25 -15 12 -16 12 -10 -3 3 -10 2 -18 -3 -18 -11 0 -7 57
5 68 5 4 5 2 2 -4 -4 -6 2 -19 12 -28 16 -15 19 -15 31 -1 7 9 8 15 2 15 -6 0
-12 -5 -14 -12 -3 -8 -6 -7 -10 3 -9 22 30 22 42 -1 8 -15 4 -27 -15 -56 -14
-20 -25 -47 -25 -60 0 -12 -4 -26 -10 -29 -5 -3 -10 -34 -10 -68 0 -73 23
-128 69 -172 30 -28 38 -30 104 -30 l72 0 -5 -80 -5 -79 -40 -9 c-131 -28
-276 45 -334 168 -47 100 -53 240 -15 360 57 186 240 345 394 342 l35 0 -33
-4z m17 -108 c-2 -93 -2 -95 -26 -95 -35 0 -85 -23 -126 -60 -20 -18 -37 -27
-37 -22 0 6 4 13 10 17 5 3 7 12 4 19 -3 8 -1 17 5 21 7 4 8 0 4 -11 -6 -15
-2 -15 24 4 17 12 36 22 43 22 6 0 8 4 5 10 -3 6 1 7 9 4 9 -3 16 -1 16 6 0 6
8 10 18 9 40 -4 44 0 42 44 -3 69 0 127 5 127 4 0 5 -43 4 -95z m273 53 c-7
-7 -12 -8 -12 -2 0 6 3 14 7 17 3 4 9 5 12 2 2 -3 -1 -11 -7 -17z m-402 -8
c-8 -5 -22 -9 -30 -9 -10 0 -8 3 5 9 27 12 43 12 25 0z m27 -12 c-3 -8 -6 -5
-6 6 -1 11 2 17 5 13 3 -3 4 -12 1 -19z m-1220 -40 c-3 -7 -5 -2 -5 12 0 14 2
19 5 13 2 -7 2 -19 0 -25z m20 0 c-3 -8 -6 -5 -6 6 -1 11 2 17 5 13 3 -3 4
-12 1 -19z m1518 2 c-10 -11 -20 -18 -23 -15 -7 6 18 35 31 35 5 0 2 -9 -8
-20z m-1435 -37 c1 -27 3 -71 6 -99 5 -49 4 -51 -18 -49 -32 3 -32 3 -17 21 9
11 12 42 11 95 -1 46 3 79 8 79 6 0 10 -21 10 -47z m514 -22 c153 -27 280 -52
283 -55 3 -3 -4 -25 -16 -49 -25 -52 -51 -164 -51 -224 0 -24 -3 -43 -7 -43
-5 0 -141 26 -303 59 l-295 58 -18 49 c-31 80 -13 186 42 247 19 22 -6 25 365
-42z m851 -11 c-10 -11 -23 -20 -28 -20 -6 0 0 11 13 25 27 29 42 25 15 -5z
m-1833 -36 l286 -57 6 -31 c12 -59 226 -1261 228 -1285 3 -22 -5 -26 -132 -62
l-135 -39 -65 15 c-36 9 -97 25 -136 37 l-71 22 -28 140 c-126 642 -255 1301
-255 1309 0 10 -8 12 302 -49z m1548 32 c0 -2 -7 -7 -16 -10 -8 -3 -12 -2 -9
4 6 10 25 14 25 6z m14 -20 c-10 -8 -21 -12 -24 -10 -5 6 21 24 34 24 6 0 1
-6 -10 -14z m-1173 -56 c5 0 9 -5 9 -11 0 -8 -4 -8 -14 0 -8 7 -16 8 -18 4 -3
-4 -3 -2 -1 5 1 8 4 23 4 35 2 17 3 15 6 -5 2 -16 9 -28 14 -28z m1299 -1 c0
-6 -7 -9 -15 -6 -8 4 -17 2 -20 -3 -4 -6 -14 -10 -24 -10 -25 0 -76 -41 -62
-49 8 -5 6 -13 -5 -27 -15 -18 -15 -18 -9 4 4 12 4 22 1 22 -9 0 -47 -70 -42
-78 10 -16 55 -7 80 17 24 22 24 23 5 42 -20 20 -26 45 -9 34 6 -3 10 -1 10 4
0 6 5 11 10 11 7 0 7 -6 0 -19 -13 -25 -13 -31 0 -31 6 0 10 7 10 15 0 8 5 15
11 15 5 0 7 5 4 10 -3 6 -1 10 4 10 14 0 14 -17 1 -25 -6 -4 -10 -18 -10 -33
0 -47 -3 -61 -13 -55 -6 3 -16 -2 -23 -12 -11 -15 -16 -16 -29 -5 -11 9 -15 9
-15 1 0 -6 7 -14 15 -17 8 -4 15 -10 15 -15 0 -4 -6 -6 -13 -4 -6 3 -18 -4
-25 -15 -11 -19 -11 -20 7 -8 24 15 40 3 21 -15 -10 -10 -11 -9 -5 2 5 10 4
12 -4 7 -6 -4 -9 -11 -6 -16 9 -14 -15 -23 -29 -11 -15 13 -27 5 -20 -14 5
-13 40 -9 60 7 7 5 14 3 18 -7 3 -8 10 -15 15 -15 10 0 10 32 0 40 -4 3 -1 11
7 18 12 10 14 10 14 -3 0 -17 2 -18 23 -9 11 4 14 15 10 38 -3 18 0 43 6 55 7
12 8 21 2 21 -5 0 -12 -6 -14 -12 -4 -10 -6 -10 -6 0 -1 7 6 15 14 18 8 4 15
10 15 15 0 4 -7 6 -15 3 -22 -9 -18 11 9 43 27 31 45 25 28 -10 -12 -25 -25
-139 -24 -212 1 -41 -1 -46 -9 -26 -5 13 -7 33 -3 43 5 17 3 19 -18 13 -33
-11 -34 -14 -10 -31 12 -8 22 -24 22 -35 0 -10 4 -19 8 -19 19 0 9 -38 -11
-44 -53 -14 -93 -6 -124 24 -87 85 -34 293 90 354 37 18 77 21 77 5z m-300 -9
c13 -9 13 -10 0 -10 -8 0 -22 5 -30 10 -13 9 -13 10 0 10 8 0 22 -5 30 -10z
m3 -39 c14 -17 27 -28 30 -25 3 3 8 0 12 -6 3 -6 3 -10 -2 -9 -20 3 -27 -2
-13 -11 12 -8 9 -10 -10 -8 -16 2 -24 -2 -22 -9 1 -7 -3 -13 -9 -13 -6 0 -9 6
-6 13 2 6 -3 19 -11 27 -14 13 -15 13 -10 -1 6 -16 -25 -62 -36 -52 -3 4 -6
14 -6 24 0 13 5 16 17 12 14 -5 15 -1 10 26 -6 30 6 60 25 61 3 0 17 -13 31
-29z m287 19 c0 -5 -4 -10 -10 -10 -5 0 -10 5 -10 10 0 6 5 10 10 10 6 0 10
-4 10 -10z m-1190 -51 c0 -24 -25 -15 -27 11 -1 13 3 17 13 13 8 -3 14 -14 14
-24z m834 15 c3 -8 2 -12 -4 -9 -6 3 -10 10 -10 16 0 14 7 11 14 -7z m-867
-66 c-3 -7 -5 -2 -5 12 0 14 2 19 5 13 2 -7 2 -19 0 -25z m1143 23 c0 -5 -7
-11 -15 -15 -15 -5 -20 5 -8 17 9 10 23 9 23 -2z m-230 -51 c0 -11 -2 -20 -4
-20 -2 0 -6 9 -9 20 -3 11 -1 20 4 20 5 0 9 -9 9 -20z m35 10 c3 -5 2 -10 -4
-10 -5 0 -13 5 -16 10 -3 6 -2 10 4 10 5 0 13 -4 16 -10z m-477 -124 c151 -30
277 -57 280 -61 8 -8 2 -1141 -7 -1355 l-6 -144 -75 -22 c-41 -13 -88 -23
-104 -23 -15 -1 -94 17 -175 38 -80 22 -165 45 -188 51 l-43 11 0 785 0 784
23 -5 c12 -3 145 -29 295 -59z m-423 -42 c14 -3 25 -10 25 -15 0 -11 -54 1
-58 13 -2 4 -8 8 -13 8 -19 0 3 -22 34 -35 29 -12 32 -19 44 -86 6 -41 10 -75
7 -78 -2 -2 -4 4 -4 14 0 15 -2 16 -17 4 -15 -12 -16 -12 -9 6 8 19 9 85 1 93
-2 2 -14 -3 -27 -12 -24 -16 -24 -16 -27 26 -3 52 -9 62 -27 47 -8 -7 -14 -7
-14 -1 0 5 7 13 16 16 13 5 14 9 3 22 -18 21 -54 41 -43 22 5 -7 9 -17 9 -23
0 -5 5 -30 10 -55 11 -56 12 -61 13 -84 2 -15 5 -16 17 -6 10 9 15 9 15 1 0
-18 28 -13 32 7 2 9 4 -7 5 -36 1 -56 -11 -78 -21 -38 -9 38 -32 39 -33 2 -2
-26 0 -28 7 -11 8 19 9 19 9 -2 1 -12 6 -25 12 -29 8 -5 6 -10 -5 -16 -9 -5
-16 -19 -15 -31 0 -21 1 -21 8 -2 6 13 9 -4 9 -49 0 -38 4 -72 9 -75 4 -3 9
-17 11 -31 4 -43 9 -72 23 -155 13 -72 15 -76 20 -45 4 22 6 12 4 -30 -1 -36
1 -76 5 -90 4 -14 8 94 9 239 0 252 -1 265 -19 278 -37 26 -18 57 20 33 13 -8
15 -64 16 -392 1 -353 -3 -413 -21 -268 -3 25 -15 92 -25 150 -30 160 -109
604 -126 704 -8 49 -17 93 -21 99 -3 5 20 -11 51 -37 31 -25 68 -49 81 -52z
m-70 16 c3 -5 2 -10 -4 -10 -5 0 -13 5 -16 10 -3 6 -2 10 4 10 5 0 13 -4 16
-10z m956 -28 c-6 -2 -18 -10 -26 -19 -16 -16 -18 -13 -9 11 3 9 10 13 15 10
5 -3 12 3 16 12 5 14 8 15 11 4 3 -8 0 -16 -7 -18z m-48 1 c-7 -2 -19 -2 -25
0 -7 3 -2 5 12 5 14 0 19 -2 13 -5z m-893 -45 c0 -18 -2 -20 -9 -8 -6 8 -7 18
-5 22 9 14 14 9 14 -14z m885 12 c-3 -5 -11 -10 -16 -10 -6 0 -7 5 -4 10 3 6
11 10 16 10 6 0 7 -4 4 -10z m91 1 c-4 -5 0 -11 6 -14 7 -2 9 -8 5 -13 -4 -5
-12 -2 -17 6 -13 20 -12 30 1 30 5 0 8 -4 5 -9z m334 -106 c13 -14 19 -25 13
-25 -5 0 -20 11 -33 25 -13 14 -19 25 -13 25 5 0 20 -11 33 -25z m-353 -41 c4
4 1 11 -7 16 -12 7 -10 9 6 8 21 -2 27 -27 10 -40 -11 -8 -56 20 -56 35 0 5 9
2 20 -8 11 -10 23 -15 27 -11z m-81 -56 c19 -20 60 -49 92 -65 51 -25 68 -28
154 -28 61 0 94 -3 88 -9 -5 -5 -49 -9 -97 -8 -69 0 -97 5 -128 21 -21 12 -47
19 -56 16 -10 -3 -20 -1 -24 4 -4 7 1 8 12 4 16 -6 16 -5 4 10 -7 9 -18 17
-25 17 -15 0 -80 74 -84 96 -2 18 -1 18 13 -1 9 -11 31 -37 51 -57z m484 52
c0 -5 -5 -10 -11 -10 -5 0 -7 5 -4 10 3 6 8 10 11 10 2 0 4 -4 4 -10z m-529
-53 c-6 -6 -11 -16 -11 -21 0 -6 4 -4 10 4 5 8 12 11 16 7 4 -4 3 -12 -3 -18
-6 -6 -9 -51 -8 -107 l2 -97 -6 80 c-5 49 -8 -53 -9 -258 l-2 -338 26 -24 c15
-14 22 -25 16 -25 -6 0 -17 7 -25 15 -14 13 -16 -5 -17 -159 0 -111 3 -177 10
-181 5 -3 10 -12 10 -18 0 -7 -4 -6 -10 3 -7 11 -10 4 -9 -25 0 -22 3 -33 6
-25 3 8 14 23 25 33 10 10 16 22 13 27 -3 4 4 6 15 3 23 -6 27 -31 5 -39 -8
-4 -15 -11 -15 -16 0 -6 7 -7 16 -4 9 3 12 2 9 -5 -4 -5 -15 -7 -26 -4 -11 4
-19 2 -19 -4 0 -6 -6 -11 -14 -11 -8 0 -16 -7 -20 -15 -5 -13 -1 -13 31 0 21
9 55 18 78 20 22 3 56 11 75 19 29 11 103 35 169 53 11 3 12 6 3 15 -7 7 -12
17 -12 23 0 5 4 3 10 -5 5 -8 12 -11 16 -7 4 4 -2 17 -14 30 -27 29 -28 41 -2
34 19 -5 20 0 20 93 0 55 3 101 8 103 4 3 7 -62 7 -144 l0 -150 -40 -10 c-22
-6 -108 -30 -191 -55 -83 -24 -156 -44 -163 -44 -9 0 -11 142 -6 623 4 342 8
628 11 635 2 7 9 10 15 7 8 -5 8 -10 0 -18z m569 13 c0 -5 -4 -10 -10 -10 -5
0 -10 5 -10 10 0 6 5 10 10 10 6 0 10 -4 10 -10z m-335 -20 l20 -9 -20 0 c-11
0 -27 4 -35 9 -13 9 -13 10 0 9 8 0 24 -4 35 -9z m395 -40 c13 -11 21 -23 17
-26 -3 -3 -18 6 -34 20 -32 30 -17 36 17 6z m-575 0 c3 -5 -3 -10 -14 -10 -12
0 -21 5 -21 10 0 6 6 10 14 10 8 0 18 -4 21 -10z m335 -70 c0 -5 -12 -10 -27
-9 l-28 1 25 8 c14 4 26 8 28 9 1 1 2 -3 2 -9z m-111 -11 c14 -1 4 -5 -24 -10
-57 -10 -97 -3 -74 12 8 5 27 7 43 4 16 -3 40 -6 55 -6z m108 -29 c1 -13 -4
-20 -17 -20 -21 0 -35 26 -17 34 24 9 33 6 34 -14z m-1150 -24 c-7 -14 -13
-23 -15 -21 -7 6 9 45 18 45 4 0 3 -11 -3 -24z m1140 -31 c-4 -8 -11 -15 -17
-15 -14 0 -13 27 3 33 16 6 21 1 14 -18z m-1123 -21 c4 -9 4 -19 1 -22 -3 -3
-5 0 -5 7 0 7 -7 11 -14 8 -10 -4 -13 -1 -9 9 7 19 19 18 27 -2z m1124 -259
c-1 -140 -6 -255 -10 -255 -9 0 -11 361 -2 445 4 36 9 65 11 65 3 0 3 -115 1
-255z m-1141 193 c-3 -7 -5 -2 -5 12 0 14 2 19 5 13 2 -7 2 -19 0 -25z m14
-25 c-12 -20 -14 -14 -5 12 4 9 9 14 11 11 3 -2 0 -13 -6 -23z m1086 -295 c-2
-13 -4 -3 -4 22 0 25 2 35 4 23 2 -13 2 -33 0 -45z m-299 -117 c24 -20 29 -41
9 -41 -14 0 -47 35 -47 50 0 15 15 12 38 -9z m309 -23 c-3 -7 -5 -2 -5 12 0
14 2 19 5 13 2 -7 2 -19 0 -25z m22 -64 c-7 -8 -21 -20 -32 -26 -18 -9 -19 -8
-13 15 3 14 3 27 -2 30 -4 2 -1 2 7 0 8 -2 21 7 30 19 l16 23 3 -23 c2 -13 -2
-30 -9 -38z m-256 8 c9 -8 20 -12 24 -8 4 4 1 12 -7 17 -13 9 -13 10 0 6 10
-3 14 -14 12 -33 -2 -16 -5 -31 -8 -33 -5 -6 -32 18 -55 51 -19 26 -19 27 -2
21 10 -3 26 -13 36 -21z m172 -2 c-3 -5 -11 -10 -16 -10 -6 0 -7 5 -4 10 3 6
11 10 16 10 6 0 7 -4 4 -10z m25 -47 c0 -29 -65 -93 -95 -93 -15 0 -23 4 -20
10 3 5 -6 22 -20 37 -22 24 -23 28 -8 32 10 2 27 -9 40 -25 l22 -28 36 42 c41
47 45 49 45 25z m-1390 -55 c0 -13 -5 -9 -31 19 l-24 26 27 -19 c15 -10 28
-22 28 -26z m1377 -23 c-4 -8 -2 -17 3 -20 6 -4 10 -10 10 -15 0 -6 -9 -2 -20
7 -14 13 -17 20 -8 30 14 17 21 17 15 -2z m20 -7 c-3 -8 -6 -5 -6 6 -1 11 2
17 5 13 3 -3 4 -12 1 -19z m-137 8 c0 -2 -7 -7 -16 -10 -8 -3 -12 -2 -9 4 6
10 25 14 25 6z m40 -34 c0 -4 -12 -21 -27 -37 -23 -25 -28 -27 -31 -12 -2 10
7 26 20 37 24 20 38 25 38 12z m67 -14 c30 -28 29 -43 -4 -45 -14 0 -21 2 -14
6 8 5 6 13 -9 26 -11 10 -20 22 -20 27 0 15 23 8 47 -14z m-1367 9 c0 -2 -12
-14 -27 -28 l-28 -24 24 28 c23 25 31 32 31 24z m105 -27 c3 -6 -1 -7 -9 -4
-18 7 -21 14 -7 14 6 0 13 -4 16 -10z m1235 -4 c0 -2 -7 -9 -15 -16 -13 -11
-14 -10 -9 4 5 14 24 23 24 12z m-114 -39 c8 -7 -37 -57 -52 -57 -20 0 -18 10
8 37 12 13 16 23 10 23 -7 0 -12 -4 -12 -10 0 -15 -17 -12 -23 4 -4 10 4 12
30 10 19 -1 37 -4 39 -7z m4 -46 c0 -5 -7 -12 -16 -15 -14 -5 -15 -4 -4 9 14
17 20 19 20 6z m175 -21 c4 -6 3 -10 -2 -8 -4 1 -26 -4 -47 -10 -54 -16 -57
-8 -4 11 24 8 44 15 45 16 1 0 5 -4 8 -9z m-108 -6 c-3 -3 -12 -4 -19 -1 -8 3
-5 6 6 6 11 1 17 -2 13 -5z m-52 -14 c-4 -6 7 -10 26 -10 39 0 36 -5 -8 -13
-28 -6 -33 -4 -33 13 0 11 5 20 11 20 5 0 7 -4 4 -10z m-1476 -83 c-2 -1 -13
-9 -24 -17 -19 -14 -19 -14 -6 3 7 9 18 17 24 17 6 0 8 -1 6 -3z m576 -27 c3
-6 -1 -7 -9 -4 -18 7 -21 14 -7 14 6 0 13 -4 16 -10z m56 -61 c11 -11 19 -23
17 -25 -3 -2 -15 7 -28 21 -28 30 -19 34 11 4z m74 -69 c10 -11 16 -20 13 -20
-3 0 -13 9 -23 20 -10 11 -16 20 -13 20 3 0 13 -9 23 -20z m81 -82 l19 -23
-25 20 c-14 11 -27 21 -29 22 -2 2 0 3 6 3 5 0 18 -10 29 -22z m69 -78 c10
-11 16 -20 13 -20 -3 0 -13 9 -23 20 -10 11 -16 20 -13 20 3 0 13 -9 23 -20z"/>
<path d="M2858 8845 c-137 -29 -210 -135 -210 -300 0 -119 42 -210 125 -270
51 -36 194 -56 257 -35 52 17 107 72 139 140 23 49 26 67 26 160 0 114 -15
162 -71 235 -60 79 -135 99 -266 70z m172 -45 c77 -39 123 -137 124 -260 1
-77 -2 -92 -32 -153 -26 -52 -42 -72 -76 -92 -59 -35 -64 -31 -23 14 47 52 63
84 78 158 24 114 -21 259 -100 324 -41 34 -27 38 29 9z m-91 -14 c98 -51 152
-223 111 -352 -28 -88 -99 -154 -166 -154 -105 0 -194 123 -194 269 0 71 12
115 48 172 46 72 133 100 201 65z"/>
<path d="M2833 8745 c-68 -29 -114 -150 -94 -245 31 -144 123 -209 207 -145
37 29 74 114 74 174 0 94 -52 190 -117 217 -38 16 -30 17 -70 -1z m71 -31 c25
-9 19 -19 -19 -33 -63 -22 -103 -105 -84 -173 12 -47 60 -104 94 -112 32 -8
32 -24 -1 -32 -59 -15 -123 78 -124 179 0 118 62 199 134 171z m76 -112 c14
-51 13 -80 -6 -141 l-15 -53 -36 5 c-125 21 -138 200 -18 253 27 12 32 11 47
-7 10 -11 22 -37 28 -57z"/>
<path d="M4172 8059 c-22 -27 -20 -38 4 -21 15 9 37 52 27 51 -4 0 -18 -13
-31 -30z"/>
<path d="M3625 8028 c-8 -21 29 -78 51 -78 18 0 18 16 0 27 -7 4 -20 22 -29
38 -13 25 -17 27 -22 13z"/>
<path d="M2521 7965 c-189 -13 -348 -28 -353 -33 -13 -13 10 -315 25 -324 7
-4 19 -6 27 -4 8 3 195 7 415 11 220 3 409 9 419 12 18 5 19 13 12 140 -4 74
-9 154 -13 179 l-6 44 -91 -1 c-50 -1 -246 -12 -435 -24z m500 -17 c1 -17 7
-113 14 -210 l5 -78 -32 -1 c-18 0 -64 -2 -103 -4 -38 -1 -210 -6 -382 -10
l-311 -7 -6 99 c-4 54 -8 115 -10 136 -4 32 -1 37 17 38 12 0 173 11 357 23
415 29 450 30 451 14z"/>
<path d="M3800 8830 c0 -5 5 -10 10 -10 6 0 10 5 10 10 0 6 -4 10 -10 10 -5 0
-10 -4 -10 -10z"/>
<path d="M4040 8899 c0 -5 5 -7 10 -4 6 3 10 8 10 11 0 2 -4 4 -10 4 -5 0 -10
-5 -10 -11z"/>
<path d="M2093 8690 c-54 -32 -78 -91 -78 -190 0 -68 5 -93 22 -127 59 -109
155 -120 219 -23 40 59 46 174 14 248 -27 62 -79 112 -118 112 -15 0 -41 -9
-59 -20z m78 -21 c19 -10 18 -12 -19 -36 -117 -76 -104 -237 22 -285 27 -10
28 -12 11 -25 -34 -24 -83 5 -116 69 -57 112 -15 264 79 287 2 1 12 -4 23 -10z
m71 -79 c28 -55 19 -206 -13 -226 -16 -10 -55 4 -88 32 -60 50 -62 142 -3 196
51 48 80 47 104 -2z"/>
<path d="M3490 7820 c0 -5 5 -10 10 -10 6 0 10 5 10 10 0 6 -4 10 -10 10 -5 0
-10 -4 -10 -10z"/>
<path d="M3678 7429 c-2 -7 -81 -11 -261 -12 l-258 -2 3 -87 3 -88 49 0 c79 0
330 21 336 29 3 3 32 7 64 8 53 2 62 6 87 35 15 18 25 35 22 38 -3 3 -8 -1
-10 -7 -6 -17 -20 -16 -26 0 -4 10 6 13 39 12 40 -2 77 -15 43 -15 -15 -1 -56
-50 -41 -50 4 0 13 5 18 10 7 7 19 8 37 1 l27 -11 -2 53 -1 52 -7 -45 c-6 -40
-7 -41 -8 -12 -1 19 -6 31 -12 27 -5 -3 -10 2 -10 12 0 10 9 24 20 31 11 7 20
16 20 21 0 13 -127 14 -132 0z m-314 -35 c41 -16 7 -24 -91 -22 l-108 2 100 6
100 6 -100 5 -100 5 92 2 c50 1 98 -1 107 -4z m96 -4 c-19 -5 -41 -4 -50 0
-10 6 1 9 35 9 48 -1 49 -1 15 -9z m-260 -34 c0 -3 -4 -8 -10 -11 -5 -3 -10
-1 -10 4 0 6 5 11 10 11 6 0 10 -2 10 -4z m15 -86 c-17 -7 -16 -9 10 -10 17
-1 24 -4 17 -7 -19 -7 -64 6 -57 17 3 6 16 10 28 9 21 0 21 -1 2 -9z m225 2
c0 -4 -19 -9 -42 -9 l-43 -1 35 8 c51 11 50 11 50 2z m-133 -8 c-3 -3 -12 -4
-19 -1 -8 3 -5 6 6 6 11 1 17 -2 13 -5z"/>
<path d="M1702 6620 c-18 -11 -35 -32 -38 -47 -10 -39 15 -1319 26 -1348 19
-50 36 -54 355 -70 165 -8 334 -17 375 -20 41 -3 260 -14 485 -25 226 -11 437
-22 470 -25 49 -5 66 -2 92 14 18 11 35 32 39 45 3 14 -2 243 -11 508 -9 266
-20 574 -23 685 -7 194 -8 203 -31 227 -13 14 -38 28 -55 30 -17 3 -346 12
-731 21 -385 9 -750 17 -811 20 -96 3 -116 1 -142 -15z m310 -169 c66 -74 59
-224 -13 -275 -64 -44 -143 17 -156 122 -8 73 3 116 42 158 30 32 39 36 67 30
18 -3 45 -19 60 -35z m51 11 c61 -67 63 -207 5 -269 -31 -33 -42 -28 -17 6 44
60 44 181 -1 243 -11 15 -20 30 -20 33 0 11 18 4 33 -13z m316 -7 c79 -67 76
-238 -4 -291 -56 -37 -113 -14 -150 60 -74 149 42 324 154 231z m83 -27 c18
-25 24 -50 27 -105 3 -64 0 -78 -23 -117 -14 -24 -32 -46 -41 -50 -20 -7 -19
-1 7 35 17 23 24 47 26 103 4 74 -7 112 -45 165 -17 24 -17 24 4 13 12 -7 32
-27 45 -44z m313 26 c34 -22 65 -95 65 -154 0 -65 -19 -109 -61 -144 -27 -23
-39 -27 -68 -22 -71 11 -130 111 -118 198 16 117 102 174 182 122z m94 -38
c25 -39 37 -117 27 -170 -7 -36 -58 -106 -78 -106 -5 0 -1 12 10 28 59 83 50
211 -22 291 l-21 24 32 -16 c17 -9 41 -32 52 -51z m347 9 c55 -59 70 -155 35
-230 -23 -51 -50 -75 -92 -81 -76 -11 -138 69 -139 179 0 101 48 167 124 167
31 0 45 -7 72 -35z m49 13 c79 -62 86 -217 13 -295 -34 -36 -41 -27 -14 20 49
84 42 196 -16 263 -34 38 -25 45 17 12z m-1176 -462 c36 -19 75 -77 98 -146
25 -77 25 -297 0 -355 -30 -66 -60 -105 -84 -105 -36 0 -97 80 -124 162 -29
90 -32 234 -6 319 15 49 68 139 83 139 3 0 17 -6 33 -14z m1077 -45 c80 -57
134 -227 119 -370 -14 -128 -79 -251 -134 -251 -60 0 -121 63 -163 168 -33 83
-32 262 1 346 28 70 84 136 116 136 12 0 40 -13 61 -29z m-428 -196 c3 -2 7
-93 10 -201 l5 -196 -69 6 c-38 3 -131 8 -206 12 -106 5 -138 10 -138 20 0 10
6 11 23 5 12 -4 101 -11 197 -15 l176 -7 -4 173 c-2 95 -5 179 -8 186 -3 10
-45 13 -198 10 -163 -3 -193 -1 -188 11 4 12 38 13 200 8 108 -4 198 -9 200
-12z m-364 -72 c-7 -21 -13 -71 -14 -110 0 -56 -3 -73 -14 -73 -31 0 -23 147
10 198 23 35 33 26 18 -15z m60 0 c-9 -21 -16 -69 -17 -113 0 -70 -2 -77 -19
-72 -13 3 -18 15 -19 46 -4 106 16 176 50 176 19 0 19 -2 5 -37z m59 0 c-9
-23 -16 -69 -17 -113 -1 -65 -4 -76 -18 -76 -13 0 -19 12 -24 43 -12 78 20
183 55 183 19 0 19 -1 4 -37z m61 5 c-11 -21 -18 -62 -20 -112 -3 -62 -7 -80
-18 -82 -33 -5 -33 133 -1 195 9 19 23 31 36 31 19 0 19 -1 3 -32z m61 15
c-16 -39 -25 -91 -25 -151 0 -55 -2 -63 -17 -60 -34 6 -27 172 9 216 16 19 41
15 33 -5z m65 13 c0 -2 -7 -21 -16 -42 -10 -23 -16 -68 -16 -115 0 -70 -2 -76
-19 -72 -37 10 -21 188 19 221 15 12 32 16 32 8z m20 -127 c0 -84 -3 -110 -12
-107 -7 3 -17 28 -22 57 -7 41 -5 65 8 107 9 30 19 54 22 54 2 0 4 -50 4 -111z
m-163 -139 c0 -16 -1 -29 -2 -27 -13 15 -25 48 -16 43 6 -4 11 -2 11 3 0 6 2
11 3 11 2 0 4 -13 4 -30z"/>
<path d="M1884 6396 c-36 -36 -43 -70 -23 -109 39 -76 128 -76 148 1 14 49 -1
105 -34 126 -36 23 -53 20 -91 -18z m90 -18 c22 -31 20 -84 -4 -108 -25 -25
-31 -25 -64 1 -35 27 -37 90 -4 113 31 22 54 20 72 -6z"/>
<path d="M2258 6397 c-39 -32 -51 -70 -34 -110 16 -39 42 -63 78 -72 22 -6 33
-1 58 23 34 35 40 84 15 132 -28 53 -73 64 -117 27z m82 -17 c40 -40 18 -140
-30 -140 -10 0 -29 12 -44 26 -36 37 -34 75 5 108 37 31 43 32 69 6z"/>
<path d="M2660 6397 c-70 -55 -65 -143 10 -182 42 -22 58 -19 92 15 28 28 30
35 26 81 -6 62 -37 99 -82 99 -17 0 -38 -6 -46 -13z m80 -27 c41 -41 18 -140
-32 -140 -26 0 -78 53 -78 80 0 25 51 80 74 80 9 0 25 -9 36 -20z"/>
<path d="M3104 6390 c-11 -4 -33 -23 -48 -41 -23 -27 -27 -39 -22 -67 6 -40
35 -75 76 -92 42 -17 86 8 101 59 15 50 6 86 -31 122 -30 30 -41 33 -76 19z
m70 -42 c34 -48 10 -138 -37 -138 -31 0 -77 48 -77 82 0 36 40 78 74 78 14 0
31 -9 40 -22z"/>
<path d="M4105 6373 c3 -10 15 -43 25 -73 25 -73 61 -137 104 -182 47 -50 134
-96 91 -48 -10 12 -24 19 -31 16 -7 -3 -18 3 -26 12 -12 15 -11 16 5 3 10 -8
17 -9 17 -3 0 6 -5 14 -11 18 -6 3 -19 20 -30 38 -13 21 -19 25 -19 14 0 -29
-14 -21 -37 22 -12 22 -18 40 -14 40 4 0 13 -12 20 -26 22 -50 21 -17 -2 39
-18 44 -25 53 -32 41 -8 -13 -12 -10 -22 15 -6 17 -8 30 -5 29 26 -3 30 3 19
32 -8 22 -18 30 -35 30 -19 0 -23 -4 -17 -17z m72 -125 c-3 -8 -6 -5 -6 6 -1
11 2 17 5 13 3 -3 4 -12 1 -19z m83 -130 c0 -5 -7 -3 -15 6 -8 8 -15 18 -15
22 0 3 7 1 15 -6 8 -7 15 -17 15 -22z"/>
<path d="M4150 6309 c0 -5 5 -7 10 -4 6 3 10 8 10 11 0 2 -4 4 -10 4 -5 0 -10
-5 -10 -11z"/>
<path d="M4710 6090 c0 -5 7 -10 16 -10 8 0 12 5 9 10 -3 6 -10 10 -16 10 -5
0 -9 -4 -9 -10z"/>
<path d="M4824 6880 c-61 -25 -98 -128 -97 -275 1 -266 128 -461 233 -360 40
38 61 104 67 210 10 169 -48 360 -126 412 -37 25 -45 26 -77 13z m85 -65 c58
-67 99 -270 80 -403 -11 -74 -41 -149 -64 -158 -49 -19 -96 32 -136 148 -18
52 -22 86 -23 193 -1 136 8 182 45 229 28 36 61 33 98 -9z"/>
<path d="M4255 6870 c-4 -16 -10 -30 -15 -30 -4 0 -10 -9 -13 -19 -3 -13 1
-21 14 -24 12 -3 19 -13 18 -29 -2 -23 -2 -23 -6 0 -2 12 -11 22 -18 22 -20 0
-35 -63 -35 -147 0 -58 3 -73 15 -73 8 0 15 5 15 11 0 5 5 7 10 4 6 -3 10 -2
10 4 0 5 -4 13 -10 16 -5 3 -10 25 -10 48 0 27 3 37 9 28 12 -19 18 -5 27 64
8 56 9 58 14 25 l6 -35 8 50 c5 28 17 65 27 83 18 32 18 32 -2 32 -13 0 -18
-4 -13 -12 6 -10 4 -10 -7 0 -22 20 -37 14 -44 -18z m-11 -126 c9 -24 7 -27
-9 -10 -17 17 -19 26 -6 26 5 0 12 -7 15 -16z m-16 -39 c-3 -3 -9 2 -12 12 -6
14 -5 15 5 6 7 -7 10 -15 7 -18z m-11 -57 c-3 -7 -5 -2 -5 12 0 14 2 19 5 13
2 -7 2 -19 0 -25z m0 -50 c-3 -7 -5 -2 -5 12 0 14 2 19 5 13 2 -7 2 -19 0 -25z"/>
<path d="M4272 6710 c0 -14 2 -19 5 -12 2 6 2 18 0 25 -3 6 -5 1 -5 -13z"/>
<path d="M4252 6665 c-7 -8 -9 -15 -4 -15 6 0 12 -9 15 -21 4 -16 3 -18 -9 -8
-18 15 -18 0 0 -20 18 -20 10 -72 -9 -65 -7 3 -16 0 -20 -5 -3 -6 -10 -9 -15
-6 -10 6 -8 -18 9 -104 14 -69 84 -227 99 -223 7 1 11 -3 10 -9 -2 -6 3 -14
10 -16 8 -3 10 2 6 14 -5 16 -4 16 10 -1 21 -26 20 -6 -1 38 -15 33 -39 42
-27 12 9 -24 -12 -26 -25 -3 -9 16 -9 29 -1 47 9 22 10 21 5 -10 -5 -32 -5
-33 9 -17 11 14 12 26 4 50 -27 87 -37 151 -40 259 -2 65 -5 118 -8 118 -3 -1
-11 -7 -18 -15z m18 -188 c0 -43 -22 -89 -36 -75 -4 5 0 16 9 26 10 10 17 35
17 55 0 20 2 37 5 37 3 0 5 -19 5 -43z m-27 20 c3 -8 -3 -13 -17 -14 -11 0
-15 1 -8 4 6 3 10 9 6 14 -3 5 -1 9 4 9 6 0 12 -6 15 -13z m-6 -49 c-3 -8 -6
-5 -6 6 -1 11 2 17 5 13 3 -3 4 -12 1 -19z m20 -90 c-3 -7 -5 -2 -5 12 0 14 2
19 5 13 2 -7 2 -19 0 -25z m21 -35 c-11 -14 -11 -16 3 -11 13 5 16 2 11 -14
-5 -19 -6 -20 -18 -4 -9 13 -9 24 0 48 7 20 12 25 14 14 2 -10 -2 -24 -10 -33z"/>
<path d="M1403 6643 c7 -82 14 -103 36 -103 14 0 17 11 17 69 1 68 0 70 -25
74 l-26 4 28 2 c38 2 34 21 -4 21 l-32 0 6 -67z m40 -67 c4 4 7 2 7 -4 0 -17
-17 -23 -23 -8 -3 7 -8 35 -11 62 l-5 49 12 -53 c7 -30 15 -50 20 -46z"/>
<path d="M1240 5921 c0 -17 5 -33 10 -36 6 -3 10 -17 10 -31 0 -13 4 -24 10
-24 5 0 8 27 7 60 -2 49 -5 60 -19 60 -13 0 -18 -8 -18 -29z m17 -13 c-3 -7
-5 -2 -5 12 0 14 2 19 5 13 2 -7 2 -19 0 -25z"/>
<path d="M1344 5894 c2 -31 9 -61 15 -67 8 -8 8 -1 1 21 -5 18 -6 48 -3 67 4
22 2 35 -6 35 -7 0 -9 -19 -7 -56z"/>
<path d="M1424 5941 c-7 -8 8 -76 19 -83 7 -4 6 -13 -4 -25 -13 -16 -12 -17 3
-5 13 10 17 10 21 0 3 -7 6 17 6 54 1 61 -1 67 -19 65 -12 -1 -23 -3 -26 -6z"/>
<path d="M3935 6029 c-11 -17 1 -21 15 -4 8 9 8 15 2 15 -6 0 -14 -5 -17 -11z"/>
<path d="M5097 5820 c-62 -49 -103 -201 -95 -350 11 -185 100 -276 185 -187
55 57 84 155 84 291 2 203 -81 319 -174 246z m103 -75 c23 -45 25 -61 24 -170
0 -131 -21 -207 -69 -263 -30 -34 -50 -24 -81 36 -56 108 -29 357 46 432 31
31 52 22 80 -35z"/>
<path d="M4442 5493 c3 -60 5 -68 23 -68 18 0 20 8 23 68 3 66 3 67 -23 67
-26 0 -26 -1 -23 -67z m28 37 c0 -5 -5 -10 -11 -10 -5 0 -7 5 -4 10 3 6 8 10
11 10 2 0 4 -4 4 -10z"/>
<path d="M4563 5512 c-1 -43 0 -44 7 -14 10 44 22 54 15 14 -15 -96 -15 -92 5
-92 23 0 29 19 28 88 0 49 -2 52 -27 52 -24 0 -26 -3 -28 -48z m40 -42 c-3
-11 -7 -20 -9 -20 -2 0 -4 9 -4 20 0 11 4 20 9 20 5 0 7 -9 4 -20z"/>
<path d="M4690 5505 c0 -89 7 -95 98 -94 42 1 69 3 60 6 -10 2 -18 8 -18 13 0
5 6 7 13 4 11 -4 12 6 7 48 -4 29 -6 56 -3 61 2 4 -25 7 -61 7 -35 0 -71 3
-80 6 -13 5 -16 -3 -16 -51z m30 0 c0 -5 -5 -3 -10 5 -5 8 -10 20 -10 25 0 6
5 3 10 -5 5 -8 10 -19 10 -25z m97 -62 c-2 -16 -4 -3 -4 27 0 30 2 43 4 28 2
-16 2 -40 0 -55z m-57 -13 c0 -5 -9 -10 -19 -10 -11 0 -23 5 -26 10 -4 6 5 10
19 10 14 0 26 -4 26 -10z"/>
<path d="M1462 5288 c-7 -7 -12 -20 -12 -31 0 -10 -4 -16 -9 -12 -5 3 -19 -20
-30 -50 -27 -71 -26 -92 0 -40 11 22 17 29 13 15 -3 -14 -8 -45 -10 -70 l-4
-45 16 40 c9 22 22 54 29 70 7 17 11 46 9 65 -3 27 -2 31 5 15 9 -19 10 -19
10 3 1 12 -4 22 -11 22 -6 0 -3 7 8 15 10 8 14 15 9 15 -6 0 -16 -5 -23 -12z
m-31 -81 c-10 -9 -11 -8 -5 6 3 10 9 15 12 12 3 -3 0 -11 -7 -18z m22 -22 c-3
-9 -8 -14 -10 -11 -3 3 -2 9 2 15 9 16 15 13 8 -4z"/>
<path d="M1403 4959 c-6 -19 -11 -26 -12 -16 -1 9 -5 17 -11 17 -15 0 -12 -17
7 -36 16 -16 18 -15 26 15 11 46 3 62 -10 20z"/>
<path d="M1410 4805 c-18 -22 22 -106 60 -128 27 -16 27 -16 26 12 -1 16 -8
37 -17 48 -21 23 -44 66 -41 76 4 13 -15 8 -28 -8z m59 -70 c13 -14 18 -25 11
-25 -10 0 -10 -3 0 -15 7 -8 9 -15 6 -15 -4 0 -14 7 -22 15 -9 9 -11 15 -4 15
6 0 8 5 5 10 -4 6 -11 8 -16 5 -5 -3 -6 2 -2 11 4 12 3 15 -5 10 -7 -4 -12 -2
-12 3 0 17 13 12 39 -14z"/>
<path d="M4882 4885 c-29 -21 -68 -89 -89 -156 -13 -39 -17 -88 -17 -179 0
-138 12 -181 60 -219 40 -32 72 -27 115 18 137 144 125 551 -16 551 -17 0 -40
-7 -53 -15z m80 -42 c25 -28 38 -91 38 -183 0 -134 -41 -261 -96 -296 -24 -16
-26 -16 -45 3 -24 24 -49 111 -49 174 0 144 68 319 126 319 6 0 18 -8 26 -17z"/>
<path d="M1258 4943 c6 -2 18 -2 25 0 6 3 1 5 -13 5 -14 0 -19 -2 -12 -5z"/>
<path d="M4214 4501 c16 -58 18 -61 43 -61 20 0 24 3 18 18 -4 9 -7 24 -7 33
0 11 -10 18 -29 21 -23 4 -28 1 -25 -11z m47 -49 c-7 -2 -18 1 -23 6 -8 8 -4
9 13 5 13 -4 18 -8 10 -11z"/>
<path d="M4350 4498 c0 -27 23 -94 42 -126 23 -37 37 -37 17 0 -13 23 -15 29
-17 61 -1 10 -6 16 -11 12 -6 -3 -7 9 -4 30 4 28 2 35 -11 35 -9 0 -16 -6 -16
-12z"/>
<path d="M4460 4478 c0 -19 2 -20 10 -8 8 11 9 9 5 -10 -4 -15 2 -44 15 -73
22 -50 36 -62 26 -23 -4 16 -1 26 8 29 11 5 13 -1 9 -27 l-5 -32 59 0 c45 1
58 4 58 16 0 10 -12 16 -39 18 -25 2 -36 0 -31 -7 3 -7 -3 -11 -16 -11 -18 0
-19 2 -9 15 7 9 29 15 51 15 38 0 51 12 28 25 -6 4 -9 23 -7 43 3 36 2 37 -37
44 -22 4 -59 7 -82 7 -38 1 -43 -2 -43 -21z m123 -18 c3 -11 1 -23 -4 -26 -5
-3 -9 6 -9 20 0 31 6 34 13 6z m31 5 c-4 -8 -8 -15 -10 -15 -2 0 -4 7 -4 15 0
8 4 15 10 15 5 0 7 -7 4 -15z m-17 -57 c5 13 23 7 23 -9 0 -16 -43 -6 -47 11
-4 13 -3 13 7 0 9 -11 13 -12 17 -2z m40 -64 c-3 -3 -12 -4 -19 -1 -8 3 -5 6
6 6 11 1 17 -2 13 -5z"/>
<path d="M1016 4761 c-3 -4 6 -6 19 -3 14 2 25 6 25 8 0 8 -39 4 -44 -5z"/>
<path d="M1029 4743 c-13 -3 -15 -12 -9 -44 4 -22 9 -42 12 -44 6 -6 241 65
253 77 6 5 -3 4 -20 -3 -42 -17 -157 -13 -171 6 -11 15 -32 17 -65 8z m14 -23
c-3 -12 -8 -19 -11 -16 -5 6 5 36 12 36 2 0 2 -9 -1 -20z m30 -9 c-4 -14 1
-20 19 -23 17 -3 14 -5 -14 -9 -33 -4 -35 -3 -27 13 5 10 6 18 2 18 -6 0 17
19 24 20 0 0 -1 -9 -4 -19z m104 -7 c-3 -3 -12 -4 -19 -1 -8 3 -5 6 6 6 11 1
17 -2 13 -5z"/>
<path d="M3700 4014 c0 -122 2 -135 15 -124 13 11 13 15 3 21 -10 7 -10 9 0 9
8 0 11 9 7 28 -5 26 -5 26 5 4 5 -13 7 -29 3 -34 -4 -7 1 -9 14 -6 16 4 19 0
19 -30 -1 -19 4 -37 11 -39 7 -3 10 7 8 29 -4 43 -15 69 -26 62 -5 -3 -6 2 -3
10 3 9 2 16 -3 16 -5 0 -15 16 -22 35 -14 40 -8 56 38 99 17 17 31 34 31 40 0
5 -3 6 -6 3 -4 -3 -15 -2 -25 3 -12 7 -19 6 -22 -3 -4 -8 -6 -8 -6 2 -1 11 -5
10 -17 -5 -8 -10 -13 -14 -10 -7 4 6 2 14 -4 18 -7 4 -10 -41 -10 -131z m70
101 c-7 -8 -17 -15 -22 -15 -11 0 14 29 26 30 5 0 3 -7 -4 -15z m-40 -39 c0
-8 -4 -17 -9 -21 -6 -3 -9 4 -8 15 1 23 17 28 17 6z"/>
<path d="M3739 3874 c-7 -9 -14 -26 -16 -37 -5 -33 -11 -47 -22 -47 -5 0 -4
12 4 27 18 34 10 44 -11 14 -9 -12 -25 -31 -37 -43 l-22 -20 24 7 c13 4 21 3
18 -1 -3 -5 13 -9 34 -9 21 -1 39 3 39 7 0 4 -4 8 -8 8 -5 0 -7 13 -4 30 2 16
8 27 13 24 5 -3 9 0 9 5 0 6 -5 11 -11 11 -8 0 -7 5 1 15 7 9 11 18 8 20 -3 3
-11 -2 -19 -11z"/>
<path d="M3575 3780 c-4 -6 5 -10 20 -10 15 0 24 4 20 10 -3 6 -12 10 -20 10
-8 0 -17 -4 -20 -10z"/>
<path d="M4474 4246 c9 -12 30 -45 47 -74 l31 -53 44 63 44 63 -38 6 c-20 4
-61 9 -90 11 -52 5 -52 5 -38 -16z m110 -9 c4 4 4 -1 0 -12 -7 -20 -7 -20 17
0 21 18 20 15 -6 -20 -16 -22 -33 -42 -37 -43 -5 -2 -5 -9 -2 -14 4 -6 2 -8
-4 -5 -5 4 -8 16 -5 27 3 11 9 18 13 15 12 -8 21 11 14 29 -8 21 -24 21 -24
-1 0 -9 -3 -14 -6 -10 -3 3 -3 15 1 27 5 15 10 18 19 11 7 -6 16 -8 20 -4z
m-50 -47 l7 -25 -15 25 c-17 28 -21 50 -7 35 5 -6 12 -21 15 -35z"/>
<path d="M4793 4112 c-60 -71 -96 -125 -78 -119 9 4 21 7 26 7 4 0 6 6 3 13
-3 8 3 13 16 13 11 0 20 -4 20 -8 0 -15 39 12 56 37 27 42 24 94 -6 95 -3 0
-19 -17 -37 -38z m29 0 c-12 -11 -19 -21 -17 -24 3 -2 -2 -5 -10 -5 -11 0 -8
8 11 29 15 15 30 26 32 23 3 -3 -4 -13 -16 -23z m28 -16 c0 -3 -4 -8 -10 -11
-5 -3 -10 -1 -10 4 0 6 5 11 10 11 6 0 10 -2 10 -4z m-77 -46 c-9 -11 -19 -17
-21 -15 -6 6 18 35 29 35 5 0 1 -9 -8 -20z m57 10 c0 -5 -7 -7 -15 -4 -8 4
-15 8 -15 10 0 2 7 4 15 4 8 0 15 -4 15 -10z m-20 -14 c0 -2 -7 -6 -15 -10 -8
-3 -15 -1 -15 4 0 6 7 10 15 10 8 0 15 -2 15 -4z"/>
<path d="M4168 4044 c-16 -18 -28 -37 -28 -43 0 -7 -5 -9 -10 -6 -6 4 -5 -4 1
-19 7 -14 16 -23 20 -20 5 3 6 -2 3 -10 -4 -9 1 -18 10 -22 17 -6 23 -34 7
-34 -5 0 -16 -11 -25 -24 -15 -23 -15 -25 4 -21 10 2 27 8 37 13 10 5 39 13
66 16 26 4 47 9 47 12 0 15 -31 76 -37 71 -3 -4 -1 -13 5 -20 9 -11 6 -16 -14
-25 -33 -16 -39 -15 -24 3 7 8 16 13 20 10 19 -12 0 64 -26 105 l-29 46 -27
-32z m45 -20 c11 -14 16 -28 13 -31 -3 -4 -6 -1 -6 6 0 8 -8 10 -22 7 -13 -3
-17 -3 -10 0 21 10 13 26 -9 19 -19 -6 -20 -5 -8 8 18 21 21 21 42 -9z m-62
-41 c-12 -20 -14 -14 -5 12 4 9 9 14 11 11 3 -2 0 -13 -6 -23z m114 -93 c-11
-5 -33 -8 -50 -8 l-30 0 30 8 c17 4 39 8 50 8 l20 1 -20 -9z m-91 -19 c3 -5
-1 -11 -9 -14 -9 -4 -12 -1 -8 9 6 16 10 17 17 5z"/>
<path d="M2378 3805 c-17 -23 -17 -24 0 -29 33 -10 354 -47 360 -41 4 3 0 15
-7 27 -7 11 -8 17 -2 13 6 -3 11 -2 11 4 0 6 -15 7 -37 4 -26 -4 -34 -3 -29 5
5 8 -7 13 -41 14 -63 2 -81 4 -123 11 -104 18 -114 17 -132 -8z m131 -9 c-11
-9 -100 -15 -94 -6 3 6 27 10 52 10 26 0 44 -2 42 -4z m73 -17 c2 -7 12 -7 28
-1 18 7 28 6 36 -3 9 -9 3 -11 -30 -9 -22 1 -54 7 -71 12 l-30 10 32 1 c17 1
33 -4 35 -10z"/>
<path d="M2811 3672 c-13 -25 -14 -72 -2 -72 10 0 26 78 18 87 -3 2 -10 -4
-16 -15z"/>
<path d="M2830 3623 c-7 -32 -15 -52 -17 -45 -3 6 -9 10 -14 6 -14 -8 -11 -72
4 -77 7 -3 5 -6 -5 -6 -10 -1 -18 -6 -18 -12 0 -5 13 -3 29 7 27 16 29 23 36
96 3 44 5 82 2 84 -2 2 -10 -22 -17 -53z m-7 -88 c4 -8 2 -17 -3 -20 -6 -4
-10 3 -10 14 0 25 6 27 13 6z"/>
<path d="M3709 3228 c-3 -22 -1 -34 4 -29 5 5 7 21 5 37 -3 27 -4 26 -9 -8z"/>
<path d="M2701 3204 c0 -11 3 -14 6 -6 3 7 2 16 -1 19 -3 4 -6 -2 -5 -13z"/>
<path d="M3799 2553 c12 -23 29 -38 37 -31 2 3 -8 15 -22 29 -25 23 -26 23
-15 2z"/>
<path d="M3948 2373 c7 -3 16 -2 19 1 4 3 -2 6 -13 5 -11 0 -14 -3 -6 -6z"/>
<path d="M3852 2783 c-7 -10 -10 -12 -7 -5 3 6 1 12 -4 12 -13 0 -15 -27 -2
-34 11 -7 34 20 29 34 -1 5 -9 2 -16 -7z"/>
<path d="M3831 2652 c12 -34 64 -79 73 -63 3 5 -3 11 -14 14 -25 6 -26 23 -2
36 14 7 19 6 19 -4 0 -7 -6 -11 -14 -8 -7 3 -13 1 -13 -5 0 -6 14 -14 31 -17
23 -5 28 -9 18 -16 -10 -6 -6 -8 14 -7 34 3 35 16 2 24 -14 3 -25 10 -25 16 0
5 6 6 13 2 6 -4 1 5 -13 20 -19 21 -31 26 -51 22 -14 -3 -31 0 -38 7 -9 9 -9
4 0 -21z m39 -6 c0 -3 -4 -8 -10 -11 -5 -3 -10 -1 -10 4 0 6 5 11 10 11 6 0
10 -2 10 -4z"/>
<path d="M3940 2663 c0 -5 3 -13 8 -17 4 -4 7 -13 7 -18 0 -6 5 -13 12 -15 7
-3 9 3 6 16 -6 22 -33 50 -33 34z"/>
<path d="M3687 2924 c-8 -8 34 -54 48 -54 6 0 6 3 -1 8 -5 4 -17 17 -25 29 -9
13 -19 20 -22 17z"/>
<path d="M2803 2588 c4 -26 5 -26 32 -11 22 13 20 17 -13 27 -19 6 -22 4 -19
-16z"/>
<path d="M3808 2263 c6 -2 18 -2 25 0 6 3 1 5 -13 5 -14 0 -19 -2 -12 -5z"/>
</g>
</svg>
